<svg width="159" height="39" viewBox="0 0 159 39" fill="none" xmlns="http://www.w3.org/2000/svg">
<path d="M2.04688 28.8594V28.5156C2.04688 28.5052 2.05729 28.4635 2.07812 28.3906C2.09896 28.3177 2.125 28.2448 2.15625 28.1719C2.1875 28.0885 2.21354 28.0156 2.23438 27.9531C2.25521 27.8802 2.26562 27.8333 2.26562 27.8125C2.27604 27.7708 2.28646 27.6719 2.29688 27.5156C2.31771 27.349 2.33854 27.1719 2.35938 26.9844C2.38021 26.7969 2.39583 26.6146 2.40625 26.4375C2.42708 26.25 2.4375 26.1146 2.4375 26.0312V23.1562C2.4375 23.0938 2.44271 23.0104 2.45312 22.9062C2.47396 22.8021 2.5 22.7031 2.53125 22.6094C2.57292 22.5052 2.61979 22.4167 2.67188 22.3438C2.73438 22.2604 2.80729 22.2188 2.89062 22.2188C3.07812 22.2188 3.21875 22.2656 3.3125 22.3594C3.41667 22.4531 3.49479 22.5677 3.54688 22.7031C3.60938 22.8281 3.65104 22.9688 3.67188 23.125C3.69271 23.2812 3.71354 23.4219 3.73438 23.5469C3.89062 24.3281 4.17188 25.0625 4.57812 25.75C4.99479 26.4375 5.51562 27.0625 6.14062 27.625C6.19271 27.6667 6.26042 27.724 6.34375 27.7969C6.4375 27.8698 6.52604 27.9427 6.60938 28.0156C6.71354 28.1094 6.81771 28.2031 6.92188 28.2969C6.97396 28.3281 7.06771 28.3698 7.20312 28.4219C7.33854 28.4635 7.48438 28.5104 7.64062 28.5625C7.79688 28.6146 7.94271 28.6615 8.07812 28.7031C8.21354 28.7448 8.3125 28.7708 8.375 28.7812C8.40625 28.7812 8.48438 28.7865 8.60938 28.7969C8.74479 28.7969 8.88542 28.8021 9.03125 28.8125C9.17708 28.8125 9.3125 28.8177 9.4375 28.8281C9.5625 28.8281 9.64062 28.8333 9.67188 28.8438C9.69271 28.8438 9.75521 28.8542 9.85938 28.875C9.97396 28.8854 10.0365 28.8906 10.0469 28.8906H10.25C10.3854 28.8906 10.5104 28.8646 10.625 28.8125C10.75 28.75 10.8854 28.7031 11.0312 28.6719C11.1771 28.6302 11.3177 28.6042 11.4531 28.5938C11.5885 28.5729 11.7188 28.5208 11.8438 28.4375C12.0208 28.3125 12.1927 28.1979 12.3594 28.0938C12.5365 27.9792 12.6979 27.8594 12.8438 27.7344C12.9896 27.6094 13.1198 27.4688 13.2344 27.3125C13.3594 27.1458 13.4635 26.9531 13.5469 26.7344C13.5469 26.724 13.5521 26.6823 13.5625 26.6094C13.5729 26.5365 13.5781 26.4635 13.5781 26.3906C13.5885 26.3073 13.599 26.2344 13.6094 26.1719C13.6198 26.099 13.625 26.0521 13.625 26.0312C13.6354 26.0104 13.6562 25.9635 13.6875 25.8906C13.7292 25.8177 13.7708 25.7448 13.8125 25.6719C13.8646 25.5885 13.9062 25.5156 13.9375 25.4531C13.9792 25.3802 14 25.3385 14 25.3281C14 25.3073 14.0052 25.224 14.0156 25.0781C14.026 24.9323 14.0312 24.8177 14.0312 24.7344C14.0312 24.3698 13.974 24.0208 13.8594 23.6875C13.7448 23.3542 13.5885 23.0469 13.3906 22.7656C13.2031 22.474 12.974 22.2135 12.7031 21.9844C12.4427 21.7448 12.1562 21.5417 11.8438 21.375C11.8229 21.3542 11.7448 21.3385 11.6094 21.3281C11.474 21.3073 11.3958 21.2865 11.375 21.2656C11.3438 21.2552 11.2656 21.224 11.1406 21.1719C11.026 21.1094 10.901 21.0469 10.7656 20.9844C10.6302 20.9115 10.5 20.849 10.375 20.7969C10.2604 20.7344 10.1875 20.6927 10.1562 20.6719C10.1562 20.6615 10.1198 20.6458 10.0469 20.625C9.98438 20.6042 9.91146 20.5833 9.82812 20.5625C9.74479 20.5312 9.66146 20.5052 9.57812 20.4844C9.50521 20.4531 9.46354 20.4375 9.45312 20.4375C9.44271 20.4271 9.40104 20.4062 9.32812 20.375C9.26562 20.3333 9.19271 20.2969 9.10938 20.2656C9.03646 20.2344 8.96354 20.2083 8.89062 20.1875C8.82812 20.1562 8.78125 20.1406 8.75 20.1406C8.66667 20.1198 8.56771 20.1042 8.45312 20.0938C8.34896 20.0833 8.28646 20.0781 8.26562 20.0781C7.68229 19.9427 7.0625 19.75 6.40625 19.5C5.76042 19.2396 5.19271 18.9531 4.70312 18.6406C4.68229 18.6302 4.64583 18.599 4.59375 18.5469C4.55208 18.4948 4.50521 18.4427 4.45312 18.3906C4.40104 18.3281 4.34896 18.2708 4.29688 18.2188C4.25521 18.1667 4.22917 18.1406 4.21875 18.1406C4.19792 18.1406 4.15104 18.125 4.07812 18.0938C4.00521 18.0625 3.96875 18.0417 3.96875 18.0312C3.94792 18.0312 3.92708 18.0156 3.90625 17.9844C3.88542 17.9427 3.86458 17.9219 3.84375 17.9219C3.83333 17.901 3.80208 17.849 3.75 17.7656C3.70833 17.6823 3.66146 17.5938 3.60938 17.5C3.55729 17.4062 3.50521 17.3177 3.45312 17.2344C3.41146 17.151 3.38542 17.099 3.375 17.0781C3.20833 16.8073 3.03125 16.5365 2.84375 16.2656C2.65625 15.9948 2.52083 15.7083 2.4375 15.4062C2.35417 15.0729 2.28646 14.724 2.23438 14.3594C2.18229 13.9948 2.15625 13.651 2.15625 13.3281C2.15625 13.0885 2.16146 12.8333 2.17188 12.5625C2.18229 12.2917 2.21354 12.0469 2.26562 11.8281C2.28646 11.8073 2.33854 11.75 2.42188 11.6562C2.50521 11.5521 2.54688 11.4844 2.54688 11.4531C2.56771 11.4219 2.59375 11.3802 2.625 11.3281C2.65625 11.2656 2.6875 11.2031 2.71875 11.1406C2.76042 11.0781 2.79688 11.026 2.82812 10.9844C2.85938 10.9323 2.88021 10.901 2.89062 10.8906C3.29688 10.1719 3.79688 9.54688 4.39062 9.01562C4.98438 8.48438 5.68229 8.09896 6.48438 7.85938C6.50521 7.85938 6.5625 7.84896 6.65625 7.82812C6.75 7.79688 6.8125 7.78125 6.84375 7.78125C6.88542 7.76042 6.96354 7.73438 7.07812 7.70312C7.20312 7.66146 7.27604 7.64062 7.29688 7.64062C7.30729 7.64062 7.35938 7.64062 7.45312 7.64062C7.54688 7.63021 7.65104 7.625 7.76562 7.625C7.89062 7.61458 8.01562 7.60938 8.14062 7.60938C8.26562 7.59896 8.36458 7.59375 8.4375 7.59375C8.47917 7.59375 8.54688 7.59896 8.64062 7.60938C8.73438 7.61979 8.83333 7.63021 8.9375 7.64062C9.05208 7.64062 9.15625 7.64583 9.25 7.65625C9.35417 7.66667 9.43229 7.67188 9.48438 7.67188C9.55729 7.69271 9.64062 7.71875 9.73438 7.75C9.83854 7.77083 9.90104 7.78125 9.92188 7.78125C10.099 7.79167 10.25 7.80208 10.375 7.8125C10.5104 7.8125 10.6458 7.82812 10.7812 7.85938C10.9167 7.88021 11.0625 7.92188 11.2188 7.98438C11.3854 8.03646 11.5938 8.11979 11.8438 8.23438C12.1042 8.35938 12.3438 8.47917 12.5625 8.59375C12.7917 8.70833 12.9479 8.78646 13.0312 8.82812C13.0521 8.84896 13.1146 8.89583 13.2188 8.96875C13.3229 9.03125 13.375 9.07812 13.375 9.10938H13.5938C13.7083 9.10938 13.8073 9.08333 13.8906 9.03125C13.974 8.97917 14.0469 8.91667 14.1094 8.84375C14.1823 8.77083 14.25 8.69271 14.3125 8.60938C14.375 8.51562 14.4427 8.4375 14.5156 8.375C14.5365 8.34375 14.5781 8.28646 14.6406 8.20312C14.7135 8.11979 14.7917 8.03125 14.875 7.9375C14.9688 7.84375 15.0521 7.76042 15.125 7.6875C15.2083 7.60417 15.2656 7.54688 15.2969 7.51562H15.4375C15.5521 7.51562 15.6354 7.56771 15.6875 7.67188C15.7396 7.77604 15.7708 7.88542 15.7812 8C15.7812 8.01042 15.7865 8.06771 15.7969 8.17188C15.8073 8.26562 15.8177 8.375 15.8281 8.5C15.8385 8.625 15.849 8.75521 15.8594 8.89062C15.8698 9.01562 15.8802 9.11458 15.8906 9.1875V9.29688V9.32812C15.8594 9.54688 15.8281 9.85417 15.7969 10.25C15.7656 10.6458 15.7292 11.0417 15.6875 11.4375C15.6562 11.8333 15.625 12.1875 15.5938 12.5C15.5729 12.8021 15.5573 12.9792 15.5469 13.0312C15.5156 13.3021 15.4375 13.5521 15.3125 13.7812C15.1979 14 14.9844 14.1094 14.6719 14.1094C14.6094 14.1094 14.5104 14.1042 14.375 14.0938C14.25 14.0833 14.1615 14.0417 14.1094 13.9688C13.9844 13.8125 13.8802 13.6458 13.7969 13.4688C13.724 13.2917 13.651 13.1198 13.5781 12.9531C13.5052 12.776 13.4271 12.599 13.3438 12.4219C13.2604 12.2448 13.1562 12.0781 13.0312 11.9219C12.8854 11.7448 12.7344 11.5573 12.5781 11.3594C12.4323 11.1615 12.276 10.9688 12.1094 10.7812C11.9427 10.5833 11.7708 10.3958 11.5938 10.2188C11.4167 10.0417 11.2292 9.88542 11.0312 9.75C11.0104 9.75 10.974 9.74479 10.9219 9.73438C10.8802 9.71354 10.8333 9.69271 10.7812 9.67188C10.7292 9.65104 10.6771 9.63021 10.625 9.60938C10.5833 9.58854 10.5573 9.57292 10.5469 9.5625C10.526 9.55208 10.4896 9.52604 10.4375 9.48438C10.3854 9.43229 10.3229 9.38021 10.25 9.32812C10.1875 9.26562 10.125 9.21354 10.0625 9.17188C10 9.13021 9.95312 9.10938 9.92188 9.10938C9.92188 9.09896 9.89583 9.08854 9.84375 9.07812C9.79167 9.05729 9.72917 9.04167 9.65625 9.03125C9.58333 9.02083 9.50521 9.01042 9.42188 9C9.34896 8.98958 9.29167 8.97917 9.25 8.96875C9.19792 8.95833 9.11458 8.94792 9 8.9375C8.89583 8.92708 8.78646 8.91667 8.67188 8.90625C8.55729 8.88542 8.44792 8.86979 8.34375 8.85938C8.25 8.84896 8.18229 8.83854 8.14062 8.82812H7.96875C7.35417 8.82812 6.83854 8.95312 6.42188 9.20312C6.01562 9.44271 5.65104 9.79688 5.32812 10.2656C5.19271 10.4531 5.07292 10.6094 4.96875 10.7344C4.86458 10.849 4.77604 10.9635 4.70312 11.0781C4.64062 11.1823 4.59375 11.3073 4.5625 11.4531C4.53125 11.5885 4.51562 11.7708 4.51562 12C4.51562 12.0521 4.51562 12.1094 4.51562 12.1719C4.51562 12.224 4.52083 12.276 4.53125 12.3281C4.54167 12.3906 4.55208 12.4531 4.5625 12.5156C4.57292 12.5677 4.60938 12.6615 4.67188 12.7969C4.73438 12.9323 4.80729 13.0781 4.89062 13.2344C4.97396 13.3802 5.05208 13.526 5.125 13.6719C5.20833 13.8073 5.27604 13.9062 5.32812 13.9688C5.32812 13.9896 5.35417 14.0312 5.40625 14.0938C5.46875 14.1562 5.53646 14.2292 5.60938 14.3125C5.68229 14.3854 5.75 14.4583 5.8125 14.5312C5.88542 14.5938 5.9375 14.6406 5.96875 14.6719C6.38542 15.0469 6.83854 15.3542 7.32812 15.5938C7.82812 15.8229 8.33333 16.0208 8.84375 16.1875C9.36458 16.3438 9.88542 16.4896 10.4062 16.625C10.9375 16.75 11.4531 16.901 11.9531 17.0781C12.0365 17.2135 12.151 17.2917 12.2969 17.3125C12.4427 17.3229 12.5885 17.3646 12.7344 17.4375C12.8177 17.5 12.9271 17.5677 13.0625 17.6406C13.1979 17.7135 13.3333 17.7917 13.4688 17.875C13.6146 17.9583 13.7552 18.0469 13.8906 18.1406C14.0365 18.224 14.1562 18.3125 14.25 18.4062C14.2812 18.4271 14.3229 18.4635 14.375 18.5156C14.4271 18.5677 14.4844 18.625 14.5469 18.6875C14.6094 18.7396 14.6667 18.7917 14.7188 18.8438C14.7708 18.8958 14.8125 18.9375 14.8438 18.9688C14.8438 19 14.8802 19.0625 14.9531 19.1562C15.026 19.25 15.0677 19.3073 15.0781 19.3281C15.3177 19.599 15.5625 19.8646 15.8125 20.125C16.0729 20.375 16.2708 20.6771 16.4062 21.0312C16.4271 21.1146 16.4531 21.2135 16.4844 21.3281C16.526 21.4427 16.5677 21.5573 16.6094 21.6719C16.651 21.7969 16.7031 21.9323 16.7656 22.0781C16.8073 22.2969 16.8333 22.5104 16.8438 22.7188C16.8542 22.9167 16.8594 23.1198 16.8594 23.3281C16.8594 23.599 16.849 23.8698 16.8281 24.1406C16.8073 24.401 16.7865 24.6667 16.7656 24.9375C16.6719 25.1667 16.5833 25.3802 16.5 25.5781C16.4167 25.776 16.3333 25.9688 16.25 26.1562C16.1667 26.3438 16.0781 26.5365 15.9844 26.7344C15.8906 26.9219 15.7865 27.1198 15.6719 27.3281C15.651 27.3385 15.6094 27.3646 15.5469 27.4062C15.4948 27.4375 15.4583 27.4635 15.4375 27.4844C15.2708 27.6302 15.125 27.7656 15 27.8906C14.875 28.0156 14.75 28.1406 14.625 28.2656C14.5104 28.3906 14.3802 28.5156 14.2344 28.6406C14.099 28.7656 13.9323 28.8958 13.7344 29.0312C13.401 29.2604 13.0312 29.4531 12.625 29.6094C12.2188 29.7552 11.8021 29.8854 11.375 30C11.1667 30.0417 11 30.0625 10.875 30.0625C10.7604 30.0625 10.6146 30.1042 10.4375 30.1875C10.3854 30.1875 10.2969 30.1875 10.1719 30.1875C10.0573 30.1979 9.9375 30.2031 9.8125 30.2031C9.6875 30.2031 9.57292 30.2031 9.46875 30.2031C9.36458 30.2135 9.29167 30.2188 9.25 30.2188C8.75 30.2188 8.25521 30.2083 7.76562 30.1875C7.28646 30.1771 6.8125 30.1146 6.34375 30C6.14583 29.9271 5.93229 29.8646 5.70312 29.8125C5.48438 29.75 5.26042 29.6771 5.03125 29.5938C5 29.5833 4.96875 29.5677 4.9375 29.5469C4.875 29.526 4.83333 29.5052 4.8125 29.4844C4.80208 29.4844 4.77083 29.4792 4.71875 29.4688C4.66667 29.4583 4.60938 29.4531 4.54688 29.4531C4.48438 29.4427 4.42188 29.4323 4.35938 29.4219C4.29688 29.4115 4.25 29.4062 4.21875 29.4062H4.15625H4.04688C4.00521 29.4271 3.92188 29.4688 3.79688 29.5312C3.67188 29.5938 3.53125 29.6667 3.375 29.75C3.22917 29.8229 3.08333 29.8906 2.9375 29.9531C2.80208 30.0156 2.70312 30.0573 2.64062 30.0781C2.59896 30.1094 2.53125 30.1354 2.4375 30.1562C2.34375 30.1771 2.28646 30.1875 2.26562 30.1875C2.22396 30.1875 2.1875 30.1302 2.15625 30.0156C2.13542 29.901 2.11458 29.7708 2.09375 29.625C2.08333 29.4688 2.07292 29.3177 2.0625 29.1719C2.05208 29.026 2.04688 28.9219 2.04688 28.8594ZM19.6875 29.5156C19.6875 29.4844 19.6927 29.4375 19.7031 29.375C19.7135 29.3125 19.7188 29.2604 19.7188 29.2188C19.8229 29.1458 19.9531 29.0885 20.1094 29.0469C20.2656 29.0052 20.4271 28.974 20.5938 28.9531C20.7708 28.9323 20.9375 28.9167 21.0938 28.9062C21.25 28.8958 21.3854 28.8802 21.5 28.8594C21.5104 28.849 21.5208 28.8229 21.5312 28.7812C21.5417 28.7292 21.5521 28.6823 21.5625 28.6406C21.5729 28.5885 21.5833 28.5417 21.5938 28.5C21.6042 28.4479 21.6094 28.4167 21.6094 28.4062C21.6302 28.3854 21.6406 28.349 21.6406 28.2969C21.6406 28.2448 21.6354 28.1927 21.625 28.1406C21.6146 28.0781 21.6094 28.0417 21.6094 28.0312C21.6302 28 21.6562 27.9583 21.6875 27.9062C21.7292 27.8542 21.75 27.8125 21.75 27.7812V27.5625C21.75 27.4062 21.7448 27.2708 21.7344 27.1562C21.724 27.0417 21.6823 26.8906 21.6094 26.7031C21.6198 26.6094 21.625 26.474 21.625 26.2969C21.6354 26.1198 21.6458 25.9167 21.6562 25.6875C21.6667 25.4583 21.6719 25.2135 21.6719 24.9531C21.6823 24.6823 21.6875 24.4115 21.6875 24.1406C21.6875 23.5885 21.6771 23.0729 21.6562 22.5938C21.6458 22.1146 21.6302 21.7708 21.6094 21.5625C21.6094 21.4688 21.6042 21.3229 21.5938 21.125C21.5938 20.9271 21.5885 20.7031 21.5781 20.4531C21.5781 20.2031 21.5729 19.9427 21.5625 19.6719C21.5521 19.401 21.5417 19.1406 21.5312 18.8906C21.5312 18.6406 21.526 18.4219 21.5156 18.2344C21.5156 18.0365 21.5104 17.8958 21.5 17.8125C21.5 17.7604 21.4948 17.6927 21.4844 17.6094C21.474 17.5156 21.4583 17.4219 21.4375 17.3281C21.4271 17.2344 21.4115 17.151 21.3906 17.0781C21.3802 17.0052 21.3698 16.9583 21.3594 16.9375C21.3073 16.7708 21.1927 16.6615 21.0156 16.6094C20.849 16.5573 20.6719 16.5208 20.4844 16.5C20.3073 16.4688 20.1458 16.4271 20 16.375C19.8646 16.3125 19.7969 16.1875 19.7969 16C19.7969 15.9271 19.8021 15.8594 19.8125 15.7969C19.8229 15.724 19.8698 15.6719 19.9531 15.6406C19.9844 15.6198 20.0312 15.599 20.0938 15.5781C20.1667 15.5573 20.2396 15.5365 20.3125 15.5156C20.3958 15.4844 20.4688 15.4635 20.5312 15.4531C20.5938 15.4323 20.6354 15.4167 20.6562 15.4062H21.5H22.3438C22.3542 15.4062 22.3854 15.4167 22.4375 15.4375C22.5 15.4479 22.5625 15.4635 22.625 15.4844C22.6875 15.4948 22.75 15.5052 22.8125 15.5156C22.875 15.526 22.9167 15.5312 22.9375 15.5312C22.9792 15.5208 23.0677 15.5052 23.2031 15.4844C23.3385 15.4531 23.4844 15.4219 23.6406 15.3906C23.8073 15.3594 23.9583 15.3333 24.0938 15.3125C24.2292 15.2917 24.3177 15.276 24.3594 15.2656H25.0469H25.6562C25.7292 15.276 25.8125 15.2969 25.9062 15.3281C26.0104 15.349 26.1094 15.3802 26.2031 15.4219C26.2969 15.4635 26.375 15.5156 26.4375 15.5781C26.5 15.6406 26.5312 15.7083 26.5312 15.7812C26.5312 15.9271 26.4427 16.0417 26.2656 16.125C26.0885 16.1979 25.8802 16.2604 25.6406 16.3125C25.401 16.3542 25.1562 16.3958 24.9062 16.4375C24.6667 16.4688 24.4844 16.5104 24.3594 16.5625C24.2656 16.6354 24.2031 16.724 24.1719 16.8281C24.151 16.9219 24.099 16.9948 24.0156 17.0469V17.8438V18.625C24.0156 18.6354 24.026 18.6979 24.0469 18.8125C24.0781 18.9167 24.1042 18.9792 24.125 19V19.1406V19.2188C24.1146 19.2188 24.0938 19.2344 24.0625 19.2656C24.0417 19.276 24.026 19.2865 24.0156 19.2969C23.9948 19.3385 23.9792 19.4115 23.9688 19.5156C23.9688 19.6198 23.9635 19.7292 23.9531 19.8438C23.9531 19.9583 23.9479 20.0729 23.9375 20.1875C23.9375 20.2917 23.9271 20.3646 23.9062 20.4062C23.9583 20.5208 23.9948 20.6667 24.0156 20.8438C24.0469 21.0208 24.0833 21.1875 24.125 21.3438C24.125 21.3646 24.1302 21.4062 24.1406 21.4688C24.151 21.5208 24.1615 21.5833 24.1719 21.6562C24.1927 21.7188 24.2083 21.7812 24.2188 21.8438C24.2396 21.8958 24.25 21.9271 24.25 21.9375C24.25 21.9688 24.2552 22.0104 24.2656 22.0625C24.276 22.1146 24.2917 22.1719 24.3125 22.2344C24.3438 22.2865 24.375 22.3333 24.4062 22.375C24.4479 22.4167 24.4948 22.4375 24.5469 22.4375H24.6094C25.1719 22.3542 25.7812 22.2917 26.4375 22.25C27.0938 22.2083 27.6979 22.1875 28.25 22.1875C28.375 22.1875 28.4844 22.2135 28.5781 22.2656C28.6823 22.3177 28.7917 22.3438 28.9062 22.3438C29.3333 22.3438 29.7292 22.3177 30.0938 22.2656C30.4583 22.2031 30.8542 22.1771 31.2812 22.1875L31.5 22.0781C31.5 22.0573 31.5052 21.974 31.5156 21.8281C31.526 21.6823 31.5312 21.5677 31.5312 21.4844C31.5312 21.4323 31.526 21.3542 31.5156 21.25C31.5156 21.1458 31.5156 21.0469 31.5156 20.9531C31.5156 20.849 31.5104 20.7552 31.5 20.6719C31.5 20.5885 31.5 20.5365 31.5 20.5156C31.5 20.4531 31.4948 20.3021 31.4844 20.0625C31.474 19.8125 31.4583 19.5469 31.4375 19.2656C31.4271 18.9844 31.4167 18.724 31.4062 18.4844C31.3958 18.2448 31.3906 18.0938 31.3906 18.0312V17.2969C31.3594 17.0365 31.2812 16.8385 31.1562 16.7031C31.0312 16.5573 30.8802 16.4531 30.7031 16.3906C30.5365 16.3177 30.3594 16.2708 30.1719 16.25C29.9844 16.2188 29.8073 16.1875 29.6406 16.1562C29.4844 16.125 29.3542 16.0833 29.25 16.0312C29.1458 15.9792 29.0938 15.8854 29.0938 15.75C29.0938 15.5938 29.1562 15.474 29.2812 15.3906C29.4062 15.3073 29.5417 15.2656 29.6875 15.2656H29.9375C30 15.276 30.1406 15.2917 30.3594 15.3125C30.5781 15.3333 30.8073 15.3594 31.0469 15.3906C31.2865 15.4219 31.5104 15.4531 31.7188 15.4844C31.9375 15.5052 32.0729 15.5208 32.125 15.5312H32.1719H32.2031C32.2969 15.5104 32.4219 15.4844 32.5781 15.4531C32.7344 15.4219 32.8854 15.3958 33.0312 15.375C33.1875 15.3542 33.3229 15.3333 33.4375 15.3125C33.5625 15.2917 33.6354 15.276 33.6562 15.2656C33.6875 15.2656 33.7292 15.25 33.7812 15.2188C33.8438 15.1771 33.8854 15.1562 33.9062 15.1562H34.1562H34.3906L34.6094 15.2188C34.6615 15.2396 34.7135 15.2552 34.7656 15.2656C34.8177 15.2656 34.849 15.2656 34.8594 15.2656C34.8906 15.276 34.9635 15.2865 35.0781 15.2969C35.1927 15.3073 35.3177 15.3177 35.4531 15.3281C35.5885 15.3385 35.7083 15.3542 35.8125 15.375C35.9271 15.3854 35.9948 15.3958 36.0156 15.4062C36.0573 15.4062 36.1094 15.4219 36.1719 15.4531C36.2344 15.4844 36.2656 15.5104 36.2656 15.5312C36.2656 15.5729 36.276 15.625 36.2969 15.6875C36.3073 15.7292 36.3125 15.7604 36.3125 15.7812C36.3125 15.8021 36.3125 15.8385 36.3125 15.8906C36.3125 15.9323 36.3073 15.9792 36.2969 16.0312C36.2865 16.0833 36.2708 16.1354 36.25 16.1875C36.2292 16.2292 36.1979 16.2552 36.1562 16.2656C36.1042 16.2656 36.0156 16.276 35.8906 16.2969C35.7656 16.3073 35.6354 16.3281 35.5 16.3594C35.3646 16.3802 35.2344 16.401 35.1094 16.4219C34.9844 16.4427 34.901 16.4531 34.8594 16.4531C34.6406 16.4948 34.4688 16.5833 34.3438 16.7188C34.2292 16.8438 34.1094 17 33.9844 17.1875C33.974 17.2396 33.9635 17.3333 33.9531 17.4688C33.9427 17.5938 33.9323 17.7344 33.9219 17.8906C33.9219 18.0469 33.9167 18.1979 33.9062 18.3438C33.9062 18.4792 33.9062 18.5729 33.9062 18.625V21.4375V24.2188C33.9062 24.2604 33.9062 24.3385 33.9062 24.4531C33.9167 24.5677 33.9219 24.6875 33.9219 24.8125C33.9323 24.9375 33.9427 25.0573 33.9531 25.1719C33.9635 25.2865 33.974 25.3646 33.9844 25.4062C34.0052 25.4167 34.0208 25.4375 34.0312 25.4688C34.0521 25.4896 34.0729 25.5104 34.0938 25.5312L34.1562 25.625V25.75C34.1562 25.8333 34.1458 25.901 34.125 25.9531C34.1146 26.0052 34.0677 26.0677 33.9844 26.1406L33.9062 27.8906C33.9062 27.9219 33.9115 27.9844 33.9219 28.0781C33.9427 28.1615 33.9635 28.224 33.9844 28.2656C34.0156 28.2969 34.0573 28.3438 34.1094 28.4062C34.1719 28.4688 34.2344 28.5312 34.2969 28.5938C34.3698 28.6562 34.4427 28.7135 34.5156 28.7656C34.599 28.8177 34.6771 28.849 34.75 28.8594C34.8542 28.8802 34.9844 28.901 35.1406 28.9219C35.2969 28.9427 35.4479 28.9792 35.5938 29.0312C35.75 29.0729 35.8802 29.1406 35.9844 29.2344C36.099 29.3281 36.1562 29.4583 36.1562 29.625C36.1562 29.7708 36.0781 29.8802 35.9219 29.9531C35.776 30.0156 35.6458 30.0469 35.5312 30.0469H35.4531C35.4323 30.0469 35.3854 30.0417 35.3125 30.0312C35.25 30.0208 35.1771 30.0104 35.0938 30C35.0208 29.9792 34.9479 29.9635 34.875 29.9531C34.8125 29.9323 34.7708 29.9219 34.75 29.9219C34.7292 29.9219 34.6719 29.9323 34.5781 29.9531C34.4948 29.9635 34.4062 29.9792 34.3125 30C34.2188 30.0104 34.1302 30.0208 34.0469 30.0312C33.9635 30.0417 33.9167 30.0469 33.9062 30.0469H33.8281H33.75C33.7188 30.0469 33.6302 30.0417 33.4844 30.0312C33.3385 30.0208 33.1771 30.0104 33 30C32.8333 29.9792 32.6667 29.9635 32.5 29.9531C32.3438 29.9427 32.2448 29.9323 32.2031 29.9219H29.4688C29.4271 29.9219 29.3802 29.9115 29.3281 29.8906C29.276 29.8594 29.25 29.8333 29.25 29.8125V29.625V29.4375C29.3542 29.2292 29.526 29.099 29.7656 29.0469C30.0052 28.9844 30.2448 28.9479 30.4844 28.9375C30.7344 28.9167 30.9583 28.901 31.1562 28.8906C31.3542 28.8698 31.4688 28.7917 31.5 28.6562C31.5 28.5833 31.5 28.4635 31.5 28.2969C31.5104 28.1198 31.5156 27.9427 31.5156 27.7656C31.5156 27.5781 31.5156 27.401 31.5156 27.2344C31.526 27.0677 31.5312 26.9531 31.5312 26.8906C31.5312 26.776 31.526 26.625 31.5156 26.4375C31.5156 26.25 31.5156 26.0677 31.5156 25.8906C31.5156 25.7031 31.5104 25.5417 31.5 25.4062C31.5 25.2604 31.5 25.1719 31.5 25.1406C31.5 25.1198 31.4948 25.0625 31.4844 24.9688C31.4844 24.875 31.4792 24.776 31.4688 24.6719C31.4583 24.5573 31.4427 24.4531 31.4219 24.3594C31.4115 24.2552 31.401 24.1823 31.3906 24.1406C31.3698 23.9948 31.3333 23.8698 31.2812 23.7656C31.2396 23.6615 31.151 23.5781 31.0156 23.5156H29.4219H27.7969C27.7552 23.5156 27.6354 23.5208 27.4375 23.5312C27.25 23.5417 27.0417 23.5573 26.8125 23.5781C26.5833 23.5885 26.3646 23.599 26.1562 23.6094C25.9583 23.6198 25.8385 23.625 25.7969 23.625H25.6094H25.2031C25.1719 23.625 25.1198 23.6302 25.0469 23.6406C24.9844 23.651 24.9115 23.6615 24.8281 23.6719C24.7552 23.6823 24.6823 23.6927 24.6094 23.7031C24.5469 23.7135 24.5 23.724 24.4688 23.7344C24.4583 23.7552 24.4375 23.7969 24.4062 23.8594C24.375 23.9115 24.3594 23.9479 24.3594 23.9688C24.3385 24.0521 24.3125 24.1667 24.2812 24.3125C24.2604 24.4479 24.2344 24.5885 24.2031 24.7344C24.1823 24.8698 24.1615 24.9948 24.1406 25.1094C24.1302 25.2135 24.125 25.276 24.125 25.2969C24.125 25.3698 24.1302 25.4844 24.1406 25.6406C24.151 25.7969 24.1615 25.9688 24.1719 26.1562C24.1823 26.3333 24.1927 26.5052 24.2031 26.6719C24.224 26.8385 24.2396 26.974 24.25 27.0781C24.25 27.0885 24.2552 27.1198 24.2656 27.1719C24.276 27.2135 24.2865 27.2604 24.2969 27.3125C24.3073 27.3646 24.3177 27.4167 24.3281 27.4688C24.349 27.5208 24.3594 27.5521 24.3594 27.5625V28.0469V28.2656C24.3594 28.2969 24.375 28.3646 24.4062 28.4688C24.4375 28.5729 24.4583 28.6354 24.4688 28.6562C24.4792 28.6562 24.5156 28.6719 24.5781 28.7031C24.651 28.7344 24.724 28.776 24.7969 28.8281C24.8802 28.8698 24.9583 28.9167 25.0312 28.9688C25.1042 29.0208 25.1615 29.0677 25.2031 29.1094C25.2865 29.1615 25.4167 29.1875 25.5938 29.1875C25.7708 29.1875 25.9479 29.1927 26.125 29.2031C26.3021 29.2135 26.4583 29.2448 26.5938 29.2969C26.7292 29.349 26.7969 29.4479 26.7969 29.5938C26.7969 29.6875 26.776 29.7552 26.7344 29.7969C26.6927 29.8281 26.6146 29.8698 26.5 29.9219C26.1979 29.9635 25.9062 29.9896 25.625 30C25.3542 30 25.0781 30 24.7969 30H23.4531H22.3906C22.3073 30 22.1615 30 21.9531 30C21.7552 30.0104 21.5365 30.0156 21.2969 30.0156C21.0677 30.026 20.849 30.0312 20.6406 30.0312C20.4323 30.0417 20.2865 30.0469 20.2031 30.0469C20.1719 30.0469 20.1302 30.0365 20.0781 30.0156C20.026 30.0052 19.974 29.9896 19.9219 29.9688C19.8698 29.9375 19.8229 29.9115 19.7812 29.8906C19.7396 29.8594 19.7188 29.8333 19.7188 29.8125C19.7083 29.7708 19.7031 29.7292 19.7031 29.6875C19.6927 29.6458 19.6875 29.5885 19.6875 29.5156ZM41.0625 22.1875V23.5625C41.0625 23.7083 41.0677 23.8958 41.0781 24.125C41.0885 24.3542 41.1094 24.599 41.1406 24.8594C41.1719 25.1094 41.2188 25.3542 41.2812 25.5938C41.3438 25.8333 41.4323 26.0312 41.5469 26.1875C41.5573 26.2083 41.5885 26.2448 41.6406 26.2969C41.7031 26.349 41.7656 26.4115 41.8281 26.4844C41.901 26.5469 41.9635 26.6094 42.0156 26.6719C42.0781 26.724 42.1146 26.7604 42.125 26.7812C42.2812 26.9583 42.4271 27.1198 42.5625 27.2656C42.6979 27.401 42.8333 27.5365 42.9688 27.6719C43.1042 27.7969 43.2448 27.9271 43.3906 28.0625C43.5469 28.1875 43.7188 28.3177 43.9062 28.4531C43.9479 28.4844 44.0052 28.5312 44.0781 28.5938C44.151 28.6458 44.224 28.6979 44.2969 28.75C44.3802 28.7917 44.4479 28.8333 44.5 28.875C44.5625 28.9062 44.599 28.9219 44.6094 28.9219H44.7656H45.0938C45.1146 28.9219 45.1771 28.9427 45.2812 28.9844C45.3958 29.026 45.4583 29.0469 45.4688 29.0469H45.5781H45.6875C45.6979 29.0469 45.7292 29.0417 45.7812 29.0312C45.8333 29.0208 45.8854 29.0104 45.9375 29C45.9896 28.9792 46.0365 28.9635 46.0781 28.9531C46.1302 28.9323 46.1615 28.9219 46.1719 28.9219C46.2969 28.901 46.401 28.8906 46.4844 28.8906C46.5677 28.8802 46.6458 28.8698 46.7188 28.8594C46.7917 28.8385 46.8646 28.8177 46.9375 28.7969C47.0208 28.7656 47.125 28.724 47.25 28.6719C47.6875 28.4948 48.0312 28.2812 48.2812 28.0312C48.5417 27.7812 48.7969 27.4479 49.0469 27.0312C49.0469 27.0104 49.0625 26.9479 49.0938 26.8438C49.1354 26.7396 49.1562 26.6719 49.1562 26.6406C49.1562 26.6406 49.1719 26.625 49.2031 26.5938C49.2448 26.5625 49.2865 26.5312 49.3281 26.5C49.3698 26.4583 49.4062 26.4219 49.4375 26.3906C49.4792 26.3594 49.5 26.3385 49.5 26.3281C49.6146 26.1823 49.7031 25.9844 49.7656 25.7344C49.8281 25.474 49.901 25.2552 49.9844 25.0781L50.2344 24.7812V24.2969C50.2344 24.276 50.2448 24.224 50.2656 24.1406C50.2969 24.0469 50.3125 23.974 50.3125 23.9219C50.3125 23.901 50.3021 23.8646 50.2812 23.8125C50.2708 23.75 50.25 23.6875 50.2188 23.625C50.1979 23.5521 50.1719 23.4896 50.1406 23.4375C50.1198 23.375 50.1042 23.3385 50.0938 23.3281C50.0938 23.2865 50.0885 23.1875 50.0781 23.0312C50.0677 22.8646 50.0573 22.6875 50.0469 22.5C50.0365 22.3125 50.026 22.1354 50.0156 21.9688C50.0052 21.8021 49.9948 21.6927 49.9844 21.6406C49.9844 21.6198 49.9688 21.5781 49.9375 21.5156C49.9167 21.4427 49.8906 21.3698 49.8594 21.2969C49.8385 21.2135 49.8125 21.1406 49.7812 21.0781C49.7604 21.0052 49.75 20.9583 49.75 20.9375C49.7396 20.9167 49.724 20.8542 49.7031 20.75C49.6823 20.6458 49.6562 20.5312 49.625 20.4062C49.6042 20.2812 49.5781 20.1667 49.5469 20.0625C49.526 19.9479 49.5104 19.8802 49.5 19.8594C49.5 19.849 49.4844 19.8177 49.4531 19.7656C49.4323 19.7031 49.4115 19.6615 49.3906 19.6406C49.3802 19.6198 49.3385 19.5781 49.2656 19.5156C49.2031 19.4427 49.1302 19.3698 49.0469 19.2969C48.9635 19.2135 48.8854 19.1406 48.8125 19.0781C48.7396 19.0052 48.6979 18.9583 48.6875 18.9375C48.6562 18.8958 48.6302 18.8542 48.6094 18.8125C48.5677 18.7292 48.5469 18.6823 48.5469 18.6719C48.5052 18.6302 48.4479 18.5677 48.375 18.4844C48.3021 18.3906 48.224 18.2917 48.1406 18.1875C48.0677 18.0833 48 17.9896 47.9375 17.9062C47.875 17.8229 47.8385 17.7656 47.8281 17.7344C47.6719 17.5469 47.4896 17.3958 47.2812 17.2812C47.0729 17.1667 46.8542 17.0729 46.625 17C46.4062 16.9271 46.1771 16.8802 45.9375 16.8594C45.6979 16.8281 45.4688 16.8125 45.25 16.8125C44.9479 16.8125 44.7083 16.8385 44.5312 16.8906C44.3646 16.9427 44.2188 17.0156 44.0938 17.1094C43.9688 17.1927 43.8438 17.2917 43.7188 17.4062C43.5938 17.5104 43.4323 17.6198 43.2344 17.7344C43.1198 17.7969 42.9844 17.8594 42.8281 17.9219C42.6823 17.974 42.5729 18.0625 42.5 18.1875C42.4896 18.1979 42.4792 18.2292 42.4688 18.2812C42.4583 18.3333 42.4479 18.3906 42.4375 18.4531C42.4271 18.5052 42.4115 18.5573 42.3906 18.6094C42.3802 18.651 42.3698 18.6719 42.3594 18.6719C42.349 18.6927 42.3281 18.7292 42.2969 18.7812C42.2656 18.8333 42.2292 18.8854 42.1875 18.9375C42.1562 18.9896 42.125 19.0417 42.0938 19.0938C42.0625 19.1354 42.0469 19.1562 42.0469 19.1562C42.026 19.1875 41.9948 19.2448 41.9531 19.3281C41.9115 19.4115 41.8698 19.5 41.8281 19.5938C41.7865 19.6875 41.7448 19.776 41.7031 19.8594C41.6719 19.9427 41.651 19.9896 41.6406 20L41.5469 20.1406C41.5469 20.151 41.5417 20.1823 41.5312 20.2344C41.5208 20.276 41.5104 20.3229 41.5 20.375C41.4896 20.4167 41.474 20.4635 41.4531 20.5156C41.4427 20.5573 41.4323 20.5833 41.4219 20.5938C41.4115 20.625 41.3906 20.6667 41.3594 20.7188C41.3281 20.7604 41.2917 20.8385 41.25 20.9531C41.2083 21.0677 41.1667 21.224 41.125 21.4219C41.0938 21.6198 41.0729 21.875 41.0625 22.1875ZM38.6875 23.3281V21.2188C38.7292 20.9688 38.7812 20.6979 38.8438 20.4062C38.9167 20.1146 39 19.8281 39.0938 19.5469C39.1875 19.2552 39.2969 18.9792 39.4219 18.7188C39.5469 18.4479 39.6875 18.2083 39.8438 18C39.8958 17.9583 39.9427 17.9062 39.9844 17.8438C40.0365 17.7708 40.0729 17.7344 40.0938 17.7344C40.1146 17.724 40.1615 17.7031 40.2344 17.6719C40.3073 17.6406 40.3854 17.6094 40.4688 17.5781C40.5625 17.5365 40.6406 17.5 40.7031 17.4688C40.776 17.4271 40.8177 17.3958 40.8281 17.375C40.8906 17.3333 40.974 17.2656 41.0781 17.1719C41.1927 17.0781 41.3073 16.9792 41.4219 16.875C41.5469 16.7708 41.6667 16.6719 41.7812 16.5781C41.8958 16.474 41.9844 16.3906 42.0469 16.3281L43.0625 16.1406C43.1979 16.0052 43.4115 15.8854 43.7031 15.7812C44.0052 15.6771 44.3229 15.5938 44.6562 15.5312C45 15.4583 45.3229 15.4062 45.625 15.375C45.9375 15.3438 46.1771 15.3281 46.3438 15.3281H46.875C46.9062 15.3385 46.9635 15.3542 47.0469 15.375C47.1302 15.3854 47.2188 15.3958 47.3125 15.4062C47.4062 15.4167 47.4948 15.4271 47.5781 15.4375C47.6615 15.4479 47.7188 15.4531 47.75 15.4531H48.3438C48.5104 15.4948 48.6823 15.5781 48.8594 15.7031C49.0469 15.8177 49.224 15.9479 49.3906 16.0938C49.5677 16.2396 49.7344 16.3854 49.8906 16.5312C50.0469 16.6771 50.1875 16.7969 50.3125 16.8906C50.3646 16.9115 50.4531 16.9531 50.5781 17.0156C50.7135 17.0677 50.7969 17.1094 50.8281 17.1406C50.9115 17.1927 50.9844 17.2604 51.0469 17.3438C51.1094 17.4271 51.1667 17.5156 51.2188 17.6094C51.2812 17.6927 51.3385 17.776 51.3906 17.8594C51.4427 17.9427 51.5 18.0156 51.5625 18.0781C51.5625 18.1094 51.5781 18.1302 51.6094 18.1406C51.6198 18.1615 51.6354 18.1771 51.6562 18.1875C51.6979 18.25 51.7552 18.3385 51.8281 18.4531C51.9115 18.5677 51.9896 18.6823 52.0625 18.7969C52.1458 18.9115 52.2135 19.0156 52.2656 19.1094C52.3281 19.2031 52.3594 19.2656 52.3594 19.2969C52.5052 19.5365 52.6146 19.8438 52.6875 20.2188C52.7604 20.5938 52.8125 20.9844 52.8438 21.3906C52.875 21.7969 52.8906 22.1979 52.8906 22.5938C52.901 22.9792 52.9062 23.3125 52.9062 23.5938C52.9062 23.625 52.901 23.6927 52.8906 23.7969C52.8906 23.8906 52.8854 23.9948 52.875 24.1094C52.875 24.224 52.8698 24.3333 52.8594 24.4375C52.8594 24.5312 52.8594 24.5938 52.8594 24.625C52.6302 25.0208 52.4427 25.4062 52.2969 25.7812C52.1615 26.1458 52.0104 26.4948 51.8438 26.8281C51.6875 27.1615 51.4948 27.4844 51.2656 27.7969C51.0365 28.099 50.7188 28.3906 50.3125 28.6719C50.2604 28.724 50.1771 28.7917 50.0625 28.875C49.9583 28.9583 49.849 29.0417 49.7344 29.125C49.6302 29.1979 49.5365 29.2656 49.4531 29.3281C49.3698 29.3802 49.3229 29.4062 49.3125 29.4062C49.1979 29.4583 49.0417 29.5208 48.8438 29.5938C48.6458 29.6562 48.4427 29.7188 48.2344 29.7812C48.0365 29.8438 47.849 29.8958 47.6719 29.9375C47.5052 29.9792 47.401 30 47.3594 30C47.0573 30.0521 46.7604 30.0885 46.4688 30.1094C46.1771 30.1406 45.8906 30.1562 45.6094 30.1562C45.276 30.1562 44.9479 30.1406 44.625 30.1094C44.3125 30.0885 44 30.0521 43.6875 30C43.6667 30 43.5938 29.9844 43.4688 29.9531C43.3542 29.9219 43.276 29.8906 43.2344 29.8594C43.1823 29.8594 43.1146 29.849 43.0312 29.8281C42.9583 29.7969 42.8802 29.7708 42.7969 29.75C42.724 29.7188 42.6562 29.6927 42.5938 29.6719C42.5417 29.651 42.5104 29.6354 42.5 29.625C42.4896 29.625 42.4635 29.6094 42.4219 29.5781C42.3906 29.5469 42.349 29.5156 42.2969 29.4844C42.2552 29.4427 42.2135 29.4062 42.1719 29.375C42.1406 29.3333 42.125 29.3073 42.125 29.2969C42.1146 29.2865 42.0781 29.2708 42.0156 29.25C41.9635 29.2292 41.901 29.2031 41.8281 29.1719C41.7656 29.1406 41.7031 29.1146 41.6406 29.0938C41.5885 29.0729 41.5573 29.0573 41.5469 29.0469C41.276 28.8698 41.0156 28.6615 40.7656 28.4219C40.526 28.1719 40.3021 27.9062 40.0938 27.625C39.8854 27.3438 39.7031 27.0573 39.5469 26.7656C39.3906 26.4635 39.2656 26.1615 39.1719 25.8594C39.1302 25.7344 39.099 25.6302 39.0781 25.5469C39.0677 25.4531 39.0521 25.3646 39.0312 25.2812C39.0208 25.1875 39.0052 25.0938 38.9844 25C38.974 24.8958 38.9479 24.7708 38.9062 24.625C38.8854 24.5625 38.8698 24.5104 38.8594 24.4688C38.8385 24.3646 38.8281 24.3073 38.8281 24.2969C38.7969 24.2031 38.776 24.0521 38.7656 23.8438C38.7656 23.6354 38.7396 23.4635 38.6875 23.3281ZM55 30C55 29.9583 54.9688 29.901 54.9062 29.8281C54.8542 29.7448 54.8229 29.6771 54.8125 29.625V29.5625V29.5469C54.8333 29.5052 54.8802 29.4427 54.9531 29.3594C55.026 29.276 55.1042 29.1927 55.1875 29.1094C55.2812 29.0156 55.3646 28.9323 55.4375 28.8594C55.5208 28.7865 55.5781 28.7344 55.6094 28.7031C55.6302 28.6823 55.6979 28.6615 55.8125 28.6406C55.9375 28.6094 56.026 28.5938 56.0781 28.5938H57.1875C57.2188 28.5938 57.2604 28.5885 57.3125 28.5781C57.375 28.5573 57.4323 28.5417 57.4844 28.5312C57.5469 28.5104 57.599 28.4896 57.6406 28.4688C57.6927 28.4479 57.7188 28.4375 57.7188 28.4375C57.8646 28.3646 57.9479 28.25 57.9688 28.0938C58 27.9271 58.0156 27.7708 58.0156 27.625V27.375C58.0156 27.0104 58.0052 26.6667 57.9844 26.3438C57.974 26.0104 57.9688 25.6615 57.9688 25.2969V25.1875C57.9688 25.1562 57.974 25.099 57.9844 25.0156C57.9948 24.9323 58.0052 24.8438 58.0156 24.75C58.0365 24.6458 58.0573 24.5521 58.0781 24.4688C58.099 24.3854 58.1146 24.3281 58.125 24.2969V17.4844C58.125 17.276 58.0885 17.1094 58.0156 16.9844C57.9427 16.8594 57.849 16.7656 57.7344 16.7031C57.6198 16.6302 57.4844 16.5833 57.3281 16.5625C57.1823 16.5417 57.026 16.5312 56.8594 16.5312H56.2188C55.9271 16.5312 55.6823 16.4948 55.4844 16.4219C55.2865 16.349 55.1875 16.1719 55.1875 15.8906C55.1875 15.7969 55.1875 15.7135 55.1875 15.6406C55.1979 15.5677 55.224 15.4688 55.2656 15.3438C55.7656 15.3646 56.2552 15.349 56.7344 15.2969C57.2135 15.2448 57.6979 15.2188 58.1875 15.2188H58.5938C58.6354 15.2292 58.7188 15.2396 58.8438 15.25C58.9792 15.2604 59.1146 15.2708 59.25 15.2812C59.3958 15.2917 59.5312 15.3021 59.6562 15.3125C59.7812 15.3229 59.8698 15.3333 59.9219 15.3438H67.2656C67.5781 15.3438 67.8021 15.4271 67.9375 15.5938C68.0729 15.75 68.1719 15.9479 68.2344 16.1875V17.0781V18C68.2344 18.0625 68.224 18.1771 68.2031 18.3438C68.1823 18.5 68.1562 18.6719 68.125 18.8594C68.1042 19.0365 68.0781 19.2135 68.0469 19.3906C68.026 19.5573 68.0104 19.6771 68 19.75C67.9792 19.7812 67.9427 19.8281 67.8906 19.8906C67.8385 19.9427 67.8021 19.9688 67.7812 19.9688C67.7812 19.9896 67.7708 20 67.75 20H67.7344H67.6875C67.6562 20 67.6406 19.9896 67.6406 19.9688C67.4635 19.8438 67.3281 19.7031 67.2344 19.5469C67.1406 19.3802 67.0625 19.2083 67 19.0312C66.9375 18.8542 66.8802 18.6771 66.8281 18.5C66.776 18.3229 66.6979 18.1562 66.5938 18C66.5729 17.9583 66.5052 17.8906 66.3906 17.7969C66.2865 17.6927 66.2292 17.6354 66.2188 17.625C66.1979 17.6042 66.151 17.5469 66.0781 17.4531C66.0156 17.3594 65.9427 17.2604 65.8594 17.1562C65.7865 17.0417 65.7135 16.9375 65.6406 16.8438C65.5781 16.75 65.5365 16.6927 65.5156 16.6719C65.474 16.5781 65.4271 16.5312 65.375 16.5312C65.3646 16.5312 65.3281 16.526 65.2656 16.5156C65.2135 16.5052 65.151 16.4948 65.0781 16.4844C65.0156 16.4635 64.9531 16.4479 64.8906 16.4375C64.8385 16.4271 64.8125 16.4167 64.8125 16.4062C64.7812 16.4062 64.724 16.3958 64.6406 16.375C64.5573 16.3542 64.4635 16.3333 64.3594 16.3125C64.2656 16.2917 64.1771 16.2708 64.0938 16.25C64.0104 16.2188 63.9583 16.1979 63.9375 16.1875H63.8594C63.8177 16.1875 63.7604 16.2031 63.6875 16.2344C63.6146 16.2552 63.5625 16.2656 63.5312 16.2656H63.4844C63.4531 16.2552 63.3646 16.2448 63.2188 16.2344C63.0833 16.224 62.9323 16.2188 62.7656 16.2188C62.599 16.2083 62.4427 16.2031 62.2969 16.2031C62.1615 16.1927 62.0781 16.1875 62.0469 16.1875H62C61.8125 16.1875 61.6562 16.224 61.5312 16.2969C61.4062 16.3698 61.3021 16.4635 61.2188 16.5781C61.1458 16.6927 61.0781 16.8229 61.0156 16.9688C60.9635 17.1042 60.9115 17.2396 60.8594 17.375C60.849 17.4896 60.8281 17.6771 60.7969 17.9375C60.776 18.1979 60.75 18.474 60.7188 18.7656C60.6979 19.0573 60.6771 19.3333 60.6562 19.5938C60.6354 19.8542 60.625 20.0365 60.625 20.1406V20.2656V20.3438C60.625 20.3958 60.6302 20.4844 60.6406 20.6094C60.651 20.7344 60.6615 20.8698 60.6719 21.0156C60.6823 21.151 60.6927 21.2865 60.7031 21.4219C60.724 21.5469 60.7396 21.6302 60.75 21.6719C60.8229 21.7656 60.9062 21.8594 61 21.9531C61.1042 22.0469 61.2135 22.1094 61.3281 22.1406H62.1875C62.5417 22.1406 62.849 22.1354 63.1094 22.125C63.3802 22.1146 63.7031 22.0833 64.0781 22.0312C64.0885 22.0104 64.1042 21.974 64.125 21.9219C64.1458 21.8698 64.1719 21.8177 64.2031 21.7656C64.2344 21.7135 64.2604 21.6667 64.2812 21.625C64.3021 21.5833 64.3177 21.5573 64.3281 21.5469C64.3698 21.474 64.4219 21.3698 64.4844 21.2344C64.5469 21.0885 64.6094 20.9479 64.6719 20.8125C64.7344 20.6667 64.7865 20.5417 64.8281 20.4375C64.8802 20.3333 64.9115 20.276 64.9219 20.2656C64.9427 20.224 64.9635 20.1354 64.9844 20C65.0052 19.8542 65.026 19.7708 65.0469 19.75C65.1302 19.6562 65.2396 19.5938 65.375 19.5625C65.5104 19.5312 65.6458 19.5156 65.7812 19.5156C65.9271 19.5156 66.0156 19.5729 66.0469 19.6875C66.0885 19.7917 66.1094 19.9115 66.1094 20.0469V20.4375V20.625C66.1094 20.7188 66.099 20.8125 66.0781 20.9062C66.0573 20.9896 66.0208 21.0729 65.9688 21.1562C65.9583 21.25 65.9479 21.4062 65.9375 21.625C65.9271 21.8438 65.9167 22.0729 65.9062 22.3125C65.8958 22.5521 65.8854 22.7812 65.875 23C65.8646 23.2083 65.8594 23.3542 65.8594 23.4375V23.8438V24.7812C65.849 24.8021 65.8385 24.849 65.8281 24.9219C65.8177 24.9948 65.8073 25.0781 65.7969 25.1719C65.7969 25.2552 65.7917 25.3385 65.7812 25.4219C65.7708 25.5052 65.7604 25.5625 65.75 25.5938C65.6354 25.6771 65.5312 25.7396 65.4375 25.7812C65.3542 25.8229 65.25 25.8438 65.125 25.8438C65.0417 25.8438 64.9635 25.8125 64.8906 25.75C64.8177 25.6771 64.75 25.5885 64.6875 25.4844C64.625 25.3802 64.5729 25.276 64.5312 25.1719C64.4896 25.0573 64.4635 24.9531 64.4531 24.8594C64.4427 24.8281 64.4271 24.7604 64.4062 24.6562C64.3958 24.5417 64.3854 24.4219 64.375 24.2969C64.3646 24.1615 64.3542 24.0365 64.3438 23.9219C64.3333 23.8073 64.3281 23.724 64.3281 23.6719C64.2969 23.6302 64.2396 23.5938 64.1562 23.5625C64.0833 23.5208 64.0104 23.4792 63.9375 23.4375C63.875 23.4167 63.776 23.3906 63.6406 23.3594C63.5052 23.3281 63.3594 23.3021 63.2031 23.2812C63.0573 23.25 62.9167 23.2292 62.7812 23.2188C62.6562 23.1979 62.5729 23.1875 62.5312 23.1875C62.5 23.1875 62.4427 23.1875 62.3594 23.1875C62.2865 23.1771 62.1979 23.1719 62.0938 23.1719C62 23.1719 61.9062 23.1719 61.8125 23.1719C61.7188 23.1615 61.6458 23.1562 61.5938 23.1562C61.5625 23.1562 61.5104 23.1615 61.4375 23.1719C61.375 23.1719 61.3073 23.1719 61.2344 23.1719C61.1719 23.1719 61.1146 23.1771 61.0625 23.1875C61.0104 23.1875 60.9792 23.1875 60.9688 23.1875L60.75 23.4375V23.9688C60.75 24.5833 60.7292 25.1771 60.6875 25.75C60.6458 26.3125 60.625 26.901 60.625 27.5156C60.625 27.8281 60.651 28.0573 60.7031 28.2031C60.7552 28.349 60.8385 28.4531 60.9531 28.5156C61.0677 28.5781 61.2135 28.625 61.3906 28.6562C61.5677 28.6875 61.7865 28.7396 62.0469 28.8125C62.0677 28.8125 62.1042 28.8281 62.1562 28.8594C62.2083 28.8906 62.2448 28.9219 62.2656 28.9531H63.4844H64.6406C64.6615 28.9531 64.7083 28.9479 64.7812 28.9375C64.8542 28.9167 64.9323 28.901 65.0156 28.8906C65.099 28.8698 65.1719 28.8542 65.2344 28.8438C65.3073 28.8229 65.3542 28.8125 65.375 28.8125H66.125H66.4219C66.4427 28.8125 66.4792 28.7969 66.5312 28.7656C66.5833 28.724 66.6354 28.6823 66.6875 28.6406C66.75 28.5885 66.8021 28.5417 66.8438 28.5C66.8854 28.4583 66.9115 28.4375 66.9219 28.4375C66.9948 28.4062 67.0521 28.3906 67.0938 28.3906C67.1458 28.3802 67.1875 28.375 67.2188 28.375C67.25 28.3646 67.2812 28.349 67.3125 28.3281C67.3438 28.2969 67.375 28.25 67.4062 28.1875C67.5208 28.0208 67.6042 27.849 67.6562 27.6719C67.7083 27.4948 67.776 27.3177 67.8594 27.1406C67.901 27.1094 67.9531 27.0469 68.0156 26.9531C68.0781 26.849 68.1146 26.7812 68.125 26.75C68.1354 26.75 68.1667 26.7344 68.2188 26.7031C68.2708 26.6615 68.3229 26.6198 68.375 26.5781C68.4271 26.526 68.474 26.4792 68.5156 26.4375C68.5573 26.3854 68.5833 26.349 68.5938 26.3281C68.6042 26.2969 68.625 26.2552 68.6562 26.2031C68.6979 26.1406 68.7396 26.0781 68.7812 26.0156C68.8229 25.9427 68.8594 25.8802 68.8906 25.8281C68.9323 25.7656 68.9583 25.724 68.9688 25.7031C68.9688 25.6927 68.9844 25.6719 69.0156 25.6406C69.0365 25.6302 69.0573 25.6146 69.0781 25.5938C69.0781 25.5729 69.0833 25.5625 69.0938 25.5625H69.125C69.2812 25.5625 69.375 25.625 69.4062 25.75C69.4375 25.8646 69.4531 25.9844 69.4531 26.1094V26.4375C69.4531 26.4896 69.4583 26.6146 69.4688 26.8125C69.4792 27.0104 69.4844 27.224 69.4844 27.4531C69.4948 27.6719 69.5052 27.8802 69.5156 28.0781C69.526 28.276 69.5312 28.3958 69.5312 28.4375V28.4844C69.5312 28.6198 69.5052 28.776 69.4531 28.9531C69.401 29.1198 69.3281 29.2812 69.2344 29.4375C69.1406 29.5938 69.026 29.724 68.8906 29.8281C68.7656 29.9323 68.6302 29.9896 68.4844 30C68.4115 29.9896 68.276 29.9792 68.0781 29.9688C67.8906 29.9583 67.6875 29.9479 67.4688 29.9375C67.25 29.9271 67.0417 29.9167 66.8438 29.9062C66.6458 29.8958 66.5052 29.8802 66.4219 29.8594H66.125H65.8594C65.8073 29.8802 65.6875 29.901 65.5 29.9219C65.3125 29.9323 65.1094 29.9427 64.8906 29.9531C64.6823 29.9635 64.4792 29.974 64.2812 29.9844C64.0938 29.9948 63.9792 30 63.9375 30H58.0156C57.9844 30.0104 57.9323 30.0208 57.8594 30.0312C57.7969 30.0417 57.724 30.0469 57.6406 30.0469C57.5677 30.0573 57.4948 30.0625 57.4219 30.0625C57.349 30.0729 57.2969 30.0781 57.2656 30.0781C57.2656 30.099 57.2292 30.1094 57.1562 30.1094C57.0833 30.1094 57.0156 30.1042 56.9531 30.0938C56.8906 30.0833 56.849 30.0781 56.8281 30.0781C56.7865 30.1094 56.7031 30.1458 56.5781 30.1875C56.4531 30.2292 56.3646 30.25 56.3125 30.25C56.2604 30.25 56.1719 30.2396 56.0469 30.2188C55.9323 30.1979 55.8073 30.1719 55.6719 30.1406C55.5365 30.1198 55.4062 30.0938 55.2812 30.0625C55.1562 30.0417 55.0625 30.0208 55 30ZM72.7812 25.3281C72.9167 25.2865 73.0469 25.349 73.1719 25.5156C73.3073 25.6823 73.4271 25.8854 73.5312 26.125C73.6354 26.3542 73.724 26.5781 73.7969 26.7969C73.8698 27.0156 73.9271 27.1458 73.9688 27.1875C73.9792 27.2083 74.0104 27.2552 74.0625 27.3281C74.1146 27.3906 74.1719 27.4635 74.2344 27.5469C74.3073 27.6198 74.375 27.6927 74.4375 27.7656C74.5104 27.8385 74.5625 27.8906 74.5938 27.9219C74.5938 27.9427 74.6198 27.9844 74.6719 28.0469C74.7344 28.1094 74.7812 28.1458 74.8125 28.1562C74.8229 28.2083 74.8594 28.3021 74.9219 28.4375C74.9844 28.5625 75.026 28.6354 75.0469 28.6562C75.1302 28.7812 75.2552 28.8906 75.4219 28.9844C75.599 29.0677 75.7865 29.1354 75.9844 29.1875C76.1823 29.2396 76.3802 29.2812 76.5781 29.3125C76.776 29.3333 76.9427 29.3438 77.0781 29.3438H77.1875C77.5417 29.25 77.8646 29.099 78.1562 28.8906C78.4583 28.6823 78.7135 28.4375 78.9219 28.1562C79.1406 27.875 79.3073 27.5625 79.4219 27.2188C79.5365 26.875 79.5938 26.5156 79.5938 26.1406C79.5938 25.9948 79.5833 25.8125 79.5625 25.5938C79.5417 25.375 79.4583 25.1927 79.3125 25.0469C79.2708 25.0052 79.2083 24.9427 79.125 24.8594C79.0521 24.776 78.974 24.6927 78.8906 24.6094C78.8073 24.526 78.7292 24.4479 78.6562 24.375C78.5938 24.3021 78.5469 24.2604 78.5156 24.25C78.3698 24.1354 78.2188 24.0469 78.0625 23.9844C77.9062 23.9115 77.7448 23.8594 77.5781 23.8281C77.4219 23.7865 77.2604 23.7552 77.0938 23.7344C76.9375 23.7031 76.776 23.6719 76.6094 23.6406C76.2865 23.5677 75.9115 23.4635 75.4844 23.3281C75.0677 23.1823 74.6615 23.0052 74.2656 22.7969C73.8698 22.5885 73.5104 22.349 73.1875 22.0781C72.8646 21.7969 72.6406 21.474 72.5156 21.1094C72.4844 21.0573 72.4531 20.9688 72.4219 20.8438C72.3906 20.7083 72.3594 20.5625 72.3281 20.4062C72.3073 20.25 72.2917 20.0938 72.2812 19.9375C72.2708 19.7812 72.2656 19.6406 72.2656 19.5156C72.2656 19.349 72.276 19.25 72.2969 19.2188C72.2969 19.2083 72.2969 19.1771 72.2969 19.125C72.2969 19.0729 72.2969 19.0208 72.2969 18.9688C72.3073 18.9062 72.3125 18.849 72.3125 18.7969C72.3229 18.7448 72.3333 18.7135 72.3438 18.7031C72.3438 18.6823 72.349 18.6354 72.3594 18.5625C72.3802 18.4792 72.401 18.3958 72.4219 18.3125C72.4531 18.2292 72.474 18.151 72.4844 18.0781C72.5052 17.9948 72.5156 17.9427 72.5156 17.9219C72.5156 17.9115 72.5312 17.8802 72.5625 17.8281C72.6042 17.776 72.6458 17.724 72.6875 17.6719C72.7396 17.6198 72.7812 17.5729 72.8125 17.5312C72.8542 17.4792 72.8802 17.4479 72.8906 17.4375C72.9219 17.4062 72.9583 17.3542 73 17.2812C73.0521 17.2083 73.1042 17.1354 73.1562 17.0625C73.2083 16.9792 73.2552 16.9062 73.2969 16.8438C73.349 16.7812 73.3854 16.7344 73.4062 16.7031C73.4688 16.599 73.5208 16.5156 73.5625 16.4531C73.6146 16.3906 73.6719 16.3385 73.7344 16.2969C73.7969 16.2552 73.8646 16.2135 73.9375 16.1719C74.0104 16.1302 74.1042 16.0729 74.2188 16C74.2292 15.9688 74.2656 15.9271 74.3281 15.875C74.3906 15.8125 74.4323 15.7812 74.4531 15.7812C74.474 15.7604 74.5104 15.7344 74.5625 15.7031C74.6146 15.6615 74.651 15.6406 74.6719 15.6406C74.7448 15.6198 74.8385 15.5938 74.9531 15.5625C75.0781 15.5208 75.1979 15.4792 75.3125 15.4375C75.4271 15.3958 75.526 15.3646 75.6094 15.3438C75.6927 15.3125 75.7396 15.2969 75.75 15.2969C75.8438 15.276 75.9375 15.2552 76.0312 15.2344C76.1042 15.2135 76.1771 15.1979 76.25 15.1875C76.3229 15.1667 76.3802 15.1562 76.4219 15.1562C76.7656 15.1562 77.1406 15.1875 77.5469 15.25C77.9531 15.3021 78.3125 15.3542 78.625 15.4062C78.6354 15.4062 78.6667 15.4219 78.7188 15.4531C78.7812 15.474 78.8438 15.5 78.9062 15.5312C78.9792 15.5521 79.0469 15.5781 79.1094 15.6094C79.1719 15.6302 79.2135 15.6406 79.2344 15.6406C79.349 15.6406 79.4479 15.6146 79.5312 15.5625C79.6146 15.5104 79.6927 15.4531 79.7656 15.3906C79.849 15.3281 79.9271 15.2708 80 15.2188C80.0833 15.1667 80.1823 15.1406 80.2969 15.1406C80.3802 15.1406 80.4479 15.1771 80.5 15.25C80.5521 15.3229 80.5885 15.4115 80.6094 15.5156C80.6406 15.6094 80.6562 15.7083 80.6562 15.8125C80.6667 15.9062 80.6719 15.9792 80.6719 16.0312C80.6719 16.2396 80.6302 16.4375 80.5469 16.625C80.474 16.8125 80.4271 17 80.4062 17.1875C80.3854 17.3229 80.375 17.5 80.375 17.7188C80.375 17.9375 80.3542 18.151 80.3125 18.3594C80.2812 18.5573 80.2135 18.7344 80.1094 18.8906C80.0156 19.0365 79.8594 19.1094 79.6406 19.1094C79.4948 19.1094 79.3802 19.0469 79.2969 18.9219C79.224 18.7865 79.1615 18.6354 79.1094 18.4688C79.0573 18.2917 79.0052 18.1146 78.9531 17.9375C78.901 17.7604 78.8333 17.625 78.75 17.5312C78.625 17.375 78.4792 17.2135 78.3125 17.0469C78.1562 16.8802 77.9844 16.7292 77.7969 16.5938C77.6094 16.4479 77.4062 16.3333 77.1875 16.25C76.9792 16.1562 76.7604 16.1094 76.5312 16.1094H76.4531C76.1094 16.1927 75.7969 16.2969 75.5156 16.4219C75.2448 16.5469 75.0104 16.7083 74.8125 16.9062C74.625 17.1042 74.4792 17.3438 74.375 17.625C74.2708 17.9062 74.2188 18.2448 74.2188 18.6406V18.8125C74.2188 18.8646 74.2344 18.9375 74.2656 19.0312C74.2969 19.1146 74.3281 19.2083 74.3594 19.3125C74.401 19.4167 74.4427 19.5156 74.4844 19.6094C74.526 19.6927 74.5625 19.75 74.5938 19.7812C74.5938 19.8125 74.599 19.8438 74.6094 19.875C74.6302 19.8958 74.651 19.9167 74.6719 19.9375C74.8385 20.0833 74.974 20.1875 75.0781 20.25C75.1823 20.3125 75.3438 20.3646 75.5625 20.4062C75.5729 20.4167 75.6146 20.4271 75.6875 20.4375C75.7604 20.4479 75.8438 20.4583 75.9375 20.4688C76.0312 20.4688 76.1198 20.474 76.2031 20.4844C76.2865 20.4948 76.3438 20.5052 76.375 20.5156C76.3854 20.526 76.4219 20.5469 76.4844 20.5781C76.5573 20.599 76.6302 20.625 76.7031 20.6562C76.7865 20.6771 76.8594 20.6979 76.9219 20.7188C76.9948 20.7396 77.0365 20.75 77.0469 20.75C77.0781 20.7604 77.151 20.7812 77.2656 20.8125C77.3906 20.8333 77.5208 20.8594 77.6562 20.8906C77.7917 20.9219 77.9167 20.9479 78.0312 20.9688C78.1562 20.9896 78.2344 21 78.2656 21C78.3073 21.0208 78.3698 21.0417 78.4531 21.0625C78.5469 21.0729 78.6042 21.0885 78.625 21.1094C78.6354 21.1198 78.6562 21.1406 78.6875 21.1719C78.7292 21.1927 78.7708 21.2188 78.8125 21.25L78.9688 21.375C78.9896 21.3854 79.0365 21.401 79.1094 21.4219C79.1823 21.4427 79.2604 21.4688 79.3438 21.5C79.4271 21.5208 79.5 21.5469 79.5625 21.5781C79.6354 21.599 79.6823 21.6146 79.7031 21.625C79.7135 21.625 79.7344 21.6406 79.7656 21.6719C79.8073 21.7031 79.849 21.7396 79.8906 21.7812C79.9323 21.8125 79.9688 21.849 80 21.8906C80.0417 21.9219 80.0677 21.9375 80.0781 21.9375C80.0885 21.9583 80.1146 21.9844 80.1562 22.0156C80.1979 22.0365 80.2448 22.0625 80.2969 22.0938C80.349 22.1146 80.3958 22.1354 80.4375 22.1562C80.4896 22.1771 80.5208 22.1875 80.5312 22.1875C80.9583 22.5 81.2656 22.8802 81.4531 23.3281C81.651 23.7656 81.75 24.25 81.75 24.7812C81.75 24.7917 81.7448 24.8125 81.7344 24.8438C81.7344 24.8646 81.7344 24.8906 81.7344 24.9219C81.724 24.9635 81.7188 25.0052 81.7188 25.0469C81.7188 25.1406 81.7135 25.2812 81.7031 25.4688C81.6927 25.6562 81.6823 25.849 81.6719 26.0469C81.6615 26.2344 81.651 26.4062 81.6406 26.5625C81.6302 26.7188 81.625 26.8125 81.625 26.8438C81.5938 27.0417 81.5156 27.2656 81.3906 27.5156C81.276 27.7552 81.1302 27.9948 80.9531 28.2344C80.7865 28.4635 80.6094 28.6771 80.4219 28.875C80.2448 29.0729 80.0781 29.2292 79.9219 29.3438C79.849 29.4062 79.7292 29.474 79.5625 29.5469C79.3958 29.6198 79.2135 29.6927 79.0156 29.7656C78.8177 29.8281 78.625 29.8906 78.4375 29.9531C78.25 30.0052 78.1042 30.0469 78 30.0781H76.7188C76.6354 30.0781 76.5208 30.0729 76.375 30.0625C76.2292 30.0521 76.0833 30.0365 75.9375 30.0156C75.8021 30.0052 75.6771 29.9948 75.5625 29.9844C75.4583 29.974 75.4062 29.9688 75.4062 29.9688C75.375 29.9688 75.3177 29.9635 75.2344 29.9531C75.1615 29.9427 75.0833 29.9323 75 29.9219C74.9271 29.901 74.8594 29.8854 74.7969 29.875C74.7344 29.8542 74.6927 29.8438 74.6719 29.8438C74.651 29.8438 74.5938 29.8333 74.5 29.8125C74.4167 29.7812 74.349 29.7552 74.2969 29.7344C74.1823 29.6823 74.0625 29.6458 73.9375 29.625C73.8229 29.5938 73.7031 29.5625 73.5781 29.5312C73.4531 29.4896 73.3333 29.4427 73.2188 29.3906C73.1042 29.3281 72.9948 29.2344 72.8906 29.1094C72.8698 29.0781 72.8438 29.026 72.8125 28.9531C72.7812 28.8802 72.75 28.8073 72.7188 28.7344C72.6875 28.651 72.6562 28.5781 72.625 28.5156C72.6042 28.4531 72.5938 28.4062 72.5938 28.375L72.5156 25.5625C72.5156 25.5208 72.5469 25.474 72.6094 25.4219C72.6823 25.3594 72.7396 25.3281 72.7812 25.3281ZM90.2188 29.9531H90.1094C90.0573 29.9635 89.9531 29.9792 89.7969 30C89.6406 30.0312 89.5365 30.0573 89.4844 30.0781H85.0781C85.026 30.0781 84.9635 30.0573 84.8906 30.0156C84.8281 29.974 84.7656 29.9219 84.7031 29.8594C84.6406 29.7969 84.5885 29.7344 84.5469 29.6719C84.5052 29.6094 84.4844 29.5573 84.4844 29.5156C84.4844 29.4844 84.5104 29.4531 84.5625 29.4219C84.625 29.3906 84.6927 29.3646 84.7656 29.3438C84.8385 29.3125 84.9062 29.2917 84.9688 29.2812C85.0312 29.2604 85.0677 29.25 85.0781 29.25C85.3802 29.1042 85.6615 29.0052 85.9219 28.9531C86.1927 28.8906 86.4792 28.8594 86.7812 28.8594H87.1094C87.151 28.8385 87.1979 28.7917 87.25 28.7188C87.3021 28.6354 87.3385 28.5677 87.3594 28.5156C87.3594 28.4844 87.3646 28.4219 87.375 28.3281C87.3958 28.2344 87.4115 28.1406 87.4219 28.0469C87.4323 27.9427 87.4427 27.8438 87.4531 27.75C87.4635 27.6562 87.4688 27.5938 87.4688 27.5625V26.2188C87.4688 26.2083 87.474 26.1719 87.4844 26.1094C87.4948 26.0365 87.5052 25.9635 87.5156 25.8906C87.5365 25.8073 87.5521 25.7344 87.5625 25.6719C87.5833 25.599 87.5938 25.5573 87.5938 25.5469V25.4531V25.4375C87.4792 24.75 87.4115 24.0833 87.3906 23.4375C87.3802 22.7812 87.3698 22.1198 87.3594 21.4531C87.349 21.276 87.3385 21.0156 87.3281 20.6719C87.3177 20.3281 87.3073 19.9792 87.2969 19.625C87.2865 19.2708 87.2708 18.9479 87.25 18.6562C87.2396 18.3646 87.2292 18.1823 87.2188 18.1094C87.2188 18.0885 87.2135 18.0312 87.2031 17.9375C87.1927 17.8438 87.1771 17.7448 87.1562 17.6406C87.1458 17.526 87.1354 17.4219 87.125 17.3281C87.1146 17.2344 87.1094 17.1771 87.1094 17.1562C87.1094 17.0938 87.1198 16.9323 87.1406 16.6719C87.1615 16.4115 87.1875 16.1354 87.2188 15.8438C87.25 15.5417 87.276 15.2604 87.2969 15C87.3281 14.7396 87.349 14.5781 87.3594 14.5156V13.7344V12.9688C87.3594 12.9479 87.3333 12.8854 87.2812 12.7812C87.2396 12.6771 87.2188 12.6146 87.2188 12.5938V11.6406C87.2188 11.6094 87.2135 11.5469 87.2031 11.4531C87.1927 11.3594 87.1771 11.2604 87.1562 11.1562C87.1458 11.0521 87.1354 10.9583 87.125 10.875C87.1146 10.7812 87.1094 10.724 87.1094 10.7031C87.099 10.5573 87.0781 10.3906 87.0469 10.2031C87.0156 10.0156 86.9635 9.83854 86.8906 9.67188C86.8177 9.49479 86.724 9.34896 86.6094 9.23438C86.4948 9.10938 86.349 9.04167 86.1719 9.03125H85.0781C84.9844 9.01042 84.8854 8.96875 84.7812 8.90625C84.6771 8.83333 84.5729 8.75521 84.4688 8.67188C84.3646 8.57812 84.2708 8.48958 84.1875 8.40625C84.1042 8.32292 84.0417 8.25 84 8.1875V8.10938V8.04688C84.0208 8.04688 84.0365 8.03646 84.0469 8.01562C84.0677 7.98438 84.0885 7.95833 84.1094 7.9375H86.8125H89.4844C89.5156 7.9375 89.5885 7.94271 89.7031 7.95312C89.8281 7.96354 89.9583 7.97917 90.0938 8C90.2292 8.01042 90.3542 8.02083 90.4688 8.03125C90.5938 8.04167 90.6719 8.04688 90.7031 8.04688H90.9531C91.099 8.04688 91.2396 8.03125 91.375 8C91.5208 7.95833 91.6667 7.9375 91.8125 7.9375H91.8906C91.9323 7.94792 91.9896 7.95833 92.0625 7.96875C92.1458 7.97917 92.224 7.98958 92.2969 8C92.3802 8.01042 92.4479 8.02083 92.5 8.03125C92.5625 8.04167 92.5938 8.04688 92.5938 8.04688C92.625 8.04688 92.6562 8.06771 92.6875 8.10938C92.7188 8.14062 92.7344 8.16667 92.7344 8.1875C92.724 8.21875 92.7083 8.25 92.6875 8.28125C92.6667 8.30208 92.651 8.32812 92.6406 8.35938C92.6302 8.39062 92.6146 8.41146 92.5938 8.42188C92.4688 8.63021 92.3229 8.77604 92.1562 8.85938C91.9896 8.93229 91.8125 8.98958 91.625 9.03125C91.4479 9.0625 91.2656 9.08854 91.0781 9.10938C90.901 9.13021 90.7396 9.1875 90.5938 9.28125C90.4479 9.36458 90.3281 9.5 90.2344 9.6875C90.151 9.875 90.1094 10.151 90.1094 10.5156V10.5938C90.1094 10.625 90.1146 10.6979 90.125 10.8125C90.1354 10.9167 90.1458 11.0365 90.1562 11.1719C90.1771 11.3073 90.1927 11.4323 90.2031 11.5469C90.2135 11.651 90.2188 11.7188 90.2188 11.75V13.5625C90.2188 13.5938 90.224 13.6875 90.2344 13.8438C90.2552 13.9896 90.2708 14.151 90.2812 14.3281C90.3021 14.5052 90.3177 14.6719 90.3281 14.8281C90.349 14.9844 90.3594 15.0885 90.3594 15.1406V16.6719C90.3594 16.6927 90.3646 16.7292 90.375 16.7812C90.3854 16.8229 90.3958 16.8698 90.4062 16.9219C90.4271 16.974 90.4427 17.026 90.4531 17.0781C90.4635 17.1198 90.4688 17.1458 90.4688 17.1562C90.4896 17.2604 90.5 17.3646 90.5 17.4688C90.5 17.5729 90.5052 17.6667 90.5156 17.75C90.5365 17.8333 90.5729 17.901 90.625 17.9531C90.6771 18.0052 90.7656 18.0312 90.8906 18.0312C90.9844 18.0312 91.0677 18.0052 91.1406 17.9531C91.2135 17.8906 91.276 17.8229 91.3281 17.75C91.3906 17.6667 91.4427 17.5833 91.4844 17.5C91.526 17.4062 91.5729 17.3281 91.625 17.2656C91.8646 17.0052 92.0833 16.7656 92.2812 16.5469C92.4896 16.3177 92.6823 16.0938 92.8594 15.875C93.0365 15.6458 93.2083 15.4062 93.375 15.1562C93.5521 14.8958 93.7344 14.6094 93.9219 14.2969C93.9427 14.2656 93.9635 14.2083 93.9844 14.125C94.0156 14.0312 94.0312 13.9688 94.0312 13.9375C94.0729 13.8854 94.1458 13.7969 94.25 13.6719C94.3646 13.5469 94.4792 13.4167 94.5938 13.2812C94.7083 13.1354 94.8125 13 94.9062 12.875C95.0104 12.75 95.0781 12.6562 95.1094 12.5938C95.1198 12.5833 95.1354 12.5521 95.1562 12.5C95.1771 12.4479 95.2031 12.3958 95.2344 12.3438C95.2656 12.2917 95.2917 12.2448 95.3125 12.2031C95.3333 12.151 95.349 12.1198 95.3594 12.1094C95.4531 11.9635 95.5469 11.8281 95.6406 11.7031C95.7448 11.5677 95.8333 11.4375 95.9062 11.3125C95.9896 11.1771 96.0573 11.0365 96.1094 10.8906C96.1615 10.7344 96.1875 10.5625 96.1875 10.375V10C96.1667 9.95833 96.1146 9.89583 96.0312 9.8125C95.9583 9.71875 95.875 9.625 95.7812 9.53125C95.6979 9.4375 95.6146 9.35417 95.5312 9.28125C95.4479 9.20833 95.3906 9.15625 95.3594 9.125C95.2865 9.0625 95.1927 9.01562 95.0781 8.98438C94.9635 8.94271 94.8542 8.90104 94.75 8.85938C94.6458 8.80729 94.5521 8.74479 94.4688 8.67188C94.3958 8.59896 94.3594 8.5 94.3594 8.375C94.3594 8.27083 94.3906 8.19792 94.4531 8.15625C94.526 8.10417 94.6094 8.06771 94.7031 8.04688C94.7969 8.02604 94.8958 8.01042 95 8C95.1042 7.98958 95.1875 7.96875 95.25 7.9375C95.3021 7.95833 95.4062 7.97396 95.5625 7.98438C95.7188 7.99479 95.901 8 96.1094 8C96.2969 8 96.474 7.99479 96.6406 7.98438C96.8177 7.97396 96.9479 7.95833 97.0312 7.9375C97.0521 7.9375 97.099 7.93229 97.1719 7.92188C97.2448 7.91146 97.3177 7.90104 97.3906 7.89062C97.474 7.86979 97.5469 7.85417 97.6094 7.84375C97.6823 7.83333 97.724 7.82812 97.7344 7.82812C97.7656 7.82812 97.8333 7.83333 97.9375 7.84375C98.0417 7.85417 98.1562 7.86979 98.2812 7.89062C98.4062 7.90104 98.5208 7.91146 98.625 7.92188C98.7396 7.93229 98.8125 7.9375 98.8438 7.9375H99.625H100.391C100.505 7.84375 100.651 7.78125 100.828 7.75C101.005 7.71875 101.182 7.70312 101.359 7.70312C101.495 7.70312 101.615 7.70833 101.719 7.71875C101.833 7.71875 101.948 7.71875 102.062 7.71875H102.688C102.698 7.71875 102.74 7.72917 102.812 7.75C102.885 7.77083 102.964 7.79167 103.047 7.8125C103.13 7.83333 103.214 7.85938 103.297 7.89062C103.391 7.91146 103.458 7.92708 103.5 7.9375C103.51 7.9375 103.526 7.95833 103.547 8C103.568 8.03125 103.583 8.04688 103.594 8.04688V8.10938C103.594 8.22396 103.573 8.3125 103.531 8.375C103.49 8.4375 103.432 8.48958 103.359 8.53125C103.297 8.5625 103.224 8.58854 103.141 8.60938C103.057 8.61979 102.974 8.63021 102.891 8.64062C102.495 8.73438 102.052 8.82292 101.562 8.90625C101.083 8.98958 100.646 9.09896 100.25 9.23438C100.208 9.25521 100.13 9.30208 100.016 9.375C99.901 9.4375 99.8333 9.48438 99.8125 9.51562C99.8021 9.51562 99.7708 9.53125 99.7188 9.5625C99.6667 9.59375 99.6146 9.63021 99.5625 9.67188C99.5104 9.70312 99.4583 9.73958 99.4062 9.78125C99.3646 9.8125 99.3385 9.82812 99.3281 9.82812C99.2969 9.84896 99.2344 9.88542 99.1406 9.9375C99.0469 9.97917 98.9427 10.0312 98.8281 10.0938C98.724 10.1458 98.625 10.1979 98.5312 10.25C98.4375 10.2917 98.3802 10.3177 98.3594 10.3281C98.3385 10.3281 98.3125 10.3438 98.2812 10.375C98.2604 10.4062 98.2396 10.4323 98.2188 10.4531C98.1875 10.526 98.151 10.5833 98.1094 10.625C98.0781 10.6771 98.0469 10.7188 98.0156 10.75C97.9948 10.7812 97.9844 10.8021 97.9844 10.8125C97.9635 10.8438 97.9115 10.901 97.8281 10.9844C97.7448 11.0573 97.6562 11.1406 97.5625 11.2344C97.4688 11.3177 97.3802 11.401 97.2969 11.4844C97.2135 11.5573 97.1615 11.6094 97.1406 11.6406C96.974 11.8281 96.8229 12.0104 96.6875 12.1875C96.5625 12.3542 96.4271 12.5208 96.2812 12.6875C96.1458 12.8438 95.9948 12.9948 95.8281 13.1406C95.6615 13.2865 95.4688 13.4271 95.25 13.5625C95.2188 13.7396 95.1615 13.8854 95.0781 14C95.0052 14.1146 94.9167 14.2188 94.8125 14.3125C94.7188 14.3958 94.6146 14.4792 94.5 14.5625C94.3854 14.6458 94.276 14.7448 94.1719 14.8594C94.099 14.9323 94.0052 15.0365 93.8906 15.1719C93.776 15.2969 93.6667 15.4323 93.5625 15.5781C93.4583 15.7135 93.3698 15.849 93.2969 15.9844C93.224 16.1198 93.1875 16.2344 93.1875 16.3281C93.1875 16.3906 93.1927 16.4375 93.2031 16.4688C93.2031 16.5 93.2083 16.5312 93.2188 16.5625C93.2292 16.5833 93.2604 16.6198 93.3125 16.6719C93.375 16.724 93.4375 16.7865 93.5 16.8594C93.5729 16.9219 93.6406 16.9844 93.7031 17.0469C93.7656 17.099 93.8021 17.1354 93.8125 17.1562C93.8229 17.1771 93.8438 17.224 93.875 17.2969C93.9167 17.3594 93.9531 17.4323 93.9844 17.5156C94.026 17.5885 94.0625 17.6615 94.0938 17.7344C94.125 17.7969 94.151 17.8333 94.1719 17.8438C94.1823 17.8646 94.2135 17.9115 94.2656 17.9844C94.3281 18.0573 94.3906 18.1354 94.4531 18.2188C94.526 18.3021 94.5885 18.3802 94.6406 18.4531C94.7031 18.526 94.7448 18.5729 94.7656 18.5938C94.776 18.6042 94.7969 18.6406 94.8281 18.7031C94.8594 18.7656 94.8958 18.8333 94.9375 18.9062C94.9792 18.9688 95.0156 19.0312 95.0469 19.0938C95.0781 19.1458 95.099 19.1771 95.1094 19.1875C95.1198 19.1979 95.1406 19.2292 95.1719 19.2812C95.2135 19.3229 95.25 19.3698 95.2812 19.4219C95.3229 19.474 95.3594 19.526 95.3906 19.5781C95.4323 19.6198 95.4635 19.651 95.4844 19.6719C95.5052 19.7031 95.5677 19.7812 95.6719 19.9062C95.7865 20.0312 95.9062 20.1667 96.0312 20.3125C96.1562 20.4583 96.2708 20.599 96.375 20.7344C96.4792 20.8594 96.5469 20.9375 96.5781 20.9688C96.724 21.1875 96.8698 21.4375 97.0156 21.7188C97.1615 21.9896 97.3281 22.2292 97.5156 22.4375C97.5365 22.4688 97.5938 22.5312 97.6875 22.625C97.7812 22.7083 97.8802 22.8021 97.9844 22.9062C98.099 23.0104 98.2031 23.1042 98.2969 23.1875C98.3906 23.2708 98.4479 23.3229 98.4688 23.3438C98.4792 23.3646 98.4948 23.4115 98.5156 23.4844C98.5365 23.5573 98.5573 23.6042 98.5781 23.625C98.599 23.625 98.6302 23.651 98.6719 23.7031C98.724 23.7448 98.776 23.7917 98.8281 23.8438C98.8906 23.8958 98.9427 23.9479 98.9844 24C99.026 24.0417 99.0521 24.0677 99.0625 24.0781C99.0729 24.099 99.0938 24.1458 99.125 24.2188C99.1667 24.2917 99.2083 24.3698 99.25 24.4531C99.2917 24.5365 99.3281 24.6146 99.3594 24.6875C99.401 24.7604 99.4271 24.8021 99.4375 24.8125C99.4896 24.8958 99.5573 25.0104 99.6406 25.1562C99.7344 25.2917 99.8281 25.4323 99.9219 25.5781C100.026 25.724 100.125 25.8594 100.219 25.9844C100.312 26.099 100.401 26.1771 100.484 26.2188C100.505 26.2396 100.562 26.2656 100.656 26.2969C100.76 26.3177 100.823 26.3333 100.844 26.3438C100.865 26.3438 100.891 26.3646 100.922 26.4062C100.964 26.4375 100.984 26.4635 100.984 26.4844C101.255 26.8177 101.536 27.1302 101.828 27.4219C102.12 27.7031 102.432 27.9479 102.766 28.1562C102.776 28.1667 102.812 28.1823 102.875 28.2031C102.938 28.224 103 28.25 103.062 28.2812C103.135 28.3125 103.203 28.3385 103.266 28.3594C103.328 28.3802 103.37 28.3958 103.391 28.4062C103.391 28.4167 103.406 28.4323 103.438 28.4531C103.469 28.474 103.505 28.5 103.547 28.5312C103.589 28.5521 103.625 28.5729 103.656 28.5938C103.698 28.6146 103.724 28.625 103.734 28.625C103.839 28.6875 104.016 28.7448 104.266 28.7969C104.526 28.8385 104.786 28.8958 105.047 28.9688C105.307 29.0417 105.536 29.1406 105.734 29.2656C105.932 29.3802 106.031 29.5417 106.031 29.75C106.031 29.7812 106.026 29.8177 106.016 29.8594C106.005 29.901 106 29.9323 106 29.9531C105.729 30.0156 105.474 30.0521 105.234 30.0625C104.995 30.0729 104.74 30.0781 104.469 30.0781C104.25 30.0781 104.01 30.0729 103.75 30.0625C103.49 30.0521 103.276 30.0156 103.109 29.9531H100.141C99.8594 29.9531 99.5885 29.8438 99.3281 29.625C99.0781 29.4062 98.8698 29.1875 98.7031 28.9688C98.7031 28.9583 98.6719 28.9115 98.6094 28.8281C98.5573 28.7344 98.4896 28.6354 98.4062 28.5312C98.3333 28.4167 98.2552 28.3021 98.1719 28.1875C98.0885 28.0729 98.026 27.9844 97.9844 27.9219C97.8385 27.6823 97.6771 27.4583 97.5 27.25C97.3229 27.0417 97.1667 26.8229 97.0312 26.5938C97.0208 26.5833 96.9896 26.5417 96.9375 26.4688C96.8958 26.3854 96.849 26.2969 96.7969 26.2031C96.7552 26.099 96.7083 26.0052 96.6562 25.9219C96.6146 25.8385 96.5885 25.7812 96.5781 25.75C96.5469 25.7188 96.474 25.651 96.3594 25.5469C96.2448 25.4323 96.1146 25.3073 95.9688 25.1719C95.8333 25.0365 95.7031 24.9115 95.5781 24.7969C95.4635 24.6719 95.3906 24.5938 95.3594 24.5625C95.3385 24.5521 95.2969 24.5052 95.2344 24.4219C95.1823 24.3281 95.1406 24.2604 95.1094 24.2188C94.901 23.8646 94.6719 23.5573 94.4219 23.2969C94.1823 23.026 93.9427 22.7396 93.7031 22.4375C93.6927 22.4062 93.651 22.3385 93.5781 22.2344C93.5052 22.1302 93.4583 22.0677 93.4375 22.0469C93.3854 21.974 93.3177 21.8802 93.2344 21.7656C93.151 21.651 93.0625 21.5365 92.9688 21.4219C92.875 21.3073 92.7917 21.2083 92.7188 21.125C92.6458 21.0417 92.6042 20.9896 92.5938 20.9688C92.5938 20.9583 92.5677 20.9427 92.5156 20.9219C92.474 20.901 92.4219 20.8802 92.3594 20.8594C92.3073 20.8281 92.2552 20.8073 92.2031 20.7969C92.151 20.776 92.1198 20.7604 92.1094 20.75C92.1094 20.7396 92.0938 20.6823 92.0625 20.5781C92.0417 20.4635 92.0208 20.3958 92 20.375C92 20.3646 91.9688 20.3385 91.9062 20.2969C91.8542 20.2448 91.7865 20.1875 91.7031 20.125C91.6302 20.0625 91.5521 20 91.4688 19.9375C91.3958 19.875 91.3385 19.8229 91.2969 19.7812C91.1615 19.6875 91.0312 19.5885 90.9062 19.4844C90.7917 19.3802 90.6458 19.3281 90.4688 19.3281V24.7031C90.4792 24.7448 90.5 24.8229 90.5312 24.9375C90.5625 25.0417 90.5781 25.1146 90.5781 25.1562V26.5938C90.5781 26.6458 90.5885 26.75 90.6094 26.9062C90.6406 27.0521 90.6667 27.2135 90.6875 27.3906C90.7188 27.5677 90.7448 27.7448 90.7656 27.9219C90.7969 28.0885 90.8229 28.2135 90.8438 28.2969C90.8646 28.4219 90.9062 28.5156 90.9688 28.5781C91.0312 28.6302 91.1042 28.6667 91.1875 28.6875C91.2708 28.7083 91.3646 28.724 91.4688 28.7344C91.5729 28.7344 91.6719 28.75 91.7656 28.7812C91.7969 28.7917 91.875 28.8125 92 28.8438C92.1354 28.875 92.276 28.9115 92.4219 28.9531C92.5781 28.9844 92.7188 29.0156 92.8438 29.0469C92.9792 29.0781 93.0573 29.099 93.0781 29.1094C93.1615 29.1198 93.2552 29.1302 93.3594 29.1406C93.474 29.151 93.5781 29.1719 93.6719 29.2031C93.776 29.2344 93.8594 29.2865 93.9219 29.3594C93.9948 29.4219 94.0312 29.5104 94.0312 29.625C94.0312 29.8333 93.9635 29.9583 93.8281 30C93.6927 30.0521 93.5365 30.0781 93.3594 30.0781H92.8438C92.8229 30.0781 92.7812 30.0833 92.7188 30.0938C92.6667 30.1042 92.6042 30.1146 92.5312 30.125C92.4688 30.1458 92.4062 30.1615 92.3438 30.1719C92.2917 30.1823 92.2604 30.1875 92.25 30.1875H92C91.6979 30.1875 91.401 30.1458 91.1094 30.0625C90.8281 29.9896 90.5312 29.9531 90.2188 29.9531ZM106.438 30C106.438 29.9583 106.406 29.901 106.344 29.8281C106.292 29.7448 106.26 29.6771 106.25 29.625V29.5625V29.5469C106.271 29.5052 106.318 29.4427 106.391 29.3594C106.464 29.276 106.542 29.1927 106.625 29.1094C106.719 29.0156 106.802 28.9323 106.875 28.8594C106.958 28.7865 107.016 28.7344 107.047 28.7031C107.068 28.6823 107.135 28.6615 107.25 28.6406C107.375 28.6094 107.464 28.5938 107.516 28.5938H108.625C108.656 28.5938 108.698 28.5885 108.75 28.5781C108.812 28.5573 108.87 28.5417 108.922 28.5312C108.984 28.5104 109.036 28.4896 109.078 28.4688C109.13 28.4479 109.156 28.4375 109.156 28.4375C109.302 28.3646 109.385 28.25 109.406 28.0938C109.438 27.9271 109.453 27.7708 109.453 27.625V27.375C109.453 27.0104 109.443 26.6667 109.422 26.3438C109.411 26.0104 109.406 25.6615 109.406 25.2969V25.1875C109.406 25.1562 109.411 25.099 109.422 25.0156C109.432 24.9323 109.443 24.8438 109.453 24.75C109.474 24.6458 109.495 24.5521 109.516 24.4688C109.536 24.3854 109.552 24.3281 109.562 24.2969V17.4844C109.562 17.276 109.526 17.1094 109.453 16.9844C109.38 16.8594 109.286 16.7656 109.172 16.7031C109.057 16.6302 108.922 16.5833 108.766 16.5625C108.62 16.5417 108.464 16.5312 108.297 16.5312H107.656C107.365 16.5312 107.12 16.4948 106.922 16.4219C106.724 16.349 106.625 16.1719 106.625 15.8906C106.625 15.7969 106.625 15.7135 106.625 15.6406C106.635 15.5677 106.661 15.4688 106.703 15.3438C107.203 15.3646 107.693 15.349 108.172 15.2969C108.651 15.2448 109.135 15.2188 109.625 15.2188H110.031C110.073 15.2292 110.156 15.2396 110.281 15.25C110.417 15.2604 110.552 15.2708 110.688 15.2812C110.833 15.2917 110.969 15.3021 111.094 15.3125C111.219 15.3229 111.307 15.3333 111.359 15.3438H118.703C119.016 15.3438 119.24 15.4271 119.375 15.5938C119.51 15.75 119.609 15.9479 119.672 16.1875V17.0781V18C119.672 18.0625 119.661 18.1771 119.641 18.3438C119.62 18.5 119.594 18.6719 119.562 18.8594C119.542 19.0365 119.516 19.2135 119.484 19.3906C119.464 19.5573 119.448 19.6771 119.438 19.75C119.417 19.7812 119.38 19.8281 119.328 19.8906C119.276 19.9427 119.24 19.9688 119.219 19.9688C119.219 19.9896 119.208 20 119.188 20H119.172H119.125C119.094 20 119.078 19.9896 119.078 19.9688C118.901 19.8438 118.766 19.7031 118.672 19.5469C118.578 19.3802 118.5 19.2083 118.438 19.0312C118.375 18.8542 118.318 18.6771 118.266 18.5C118.214 18.3229 118.135 18.1562 118.031 18C118.01 17.9583 117.943 17.8906 117.828 17.7969C117.724 17.6927 117.667 17.6354 117.656 17.625C117.635 17.6042 117.589 17.5469 117.516 17.4531C117.453 17.3594 117.38 17.2604 117.297 17.1562C117.224 17.0417 117.151 16.9375 117.078 16.8438C117.016 16.75 116.974 16.6927 116.953 16.6719C116.911 16.5781 116.865 16.5312 116.812 16.5312C116.802 16.5312 116.766 16.526 116.703 16.5156C116.651 16.5052 116.589 16.4948 116.516 16.4844C116.453 16.4635 116.391 16.4479 116.328 16.4375C116.276 16.4271 116.25 16.4167 116.25 16.4062C116.219 16.4062 116.161 16.3958 116.078 16.375C115.995 16.3542 115.901 16.3333 115.797 16.3125C115.703 16.2917 115.615 16.2708 115.531 16.25C115.448 16.2188 115.396 16.1979 115.375 16.1875H115.297C115.255 16.1875 115.198 16.2031 115.125 16.2344C115.052 16.2552 115 16.2656 114.969 16.2656H114.922C114.891 16.2552 114.802 16.2448 114.656 16.2344C114.521 16.224 114.37 16.2188 114.203 16.2188C114.036 16.2083 113.88 16.2031 113.734 16.2031C113.599 16.1927 113.516 16.1875 113.484 16.1875H113.438C113.25 16.1875 113.094 16.224 112.969 16.2969C112.844 16.3698 112.74 16.4635 112.656 16.5781C112.583 16.6927 112.516 16.8229 112.453 16.9688C112.401 17.1042 112.349 17.2396 112.297 17.375C112.286 17.4896 112.266 17.6771 112.234 17.9375C112.214 18.1979 112.188 18.474 112.156 18.7656C112.135 19.0573 112.115 19.3333 112.094 19.5938C112.073 19.8542 112.062 20.0365 112.062 20.1406V20.2656V20.3438C112.062 20.3958 112.068 20.4844 112.078 20.6094C112.089 20.7344 112.099 20.8698 112.109 21.0156C112.12 21.151 112.13 21.2865 112.141 21.4219C112.161 21.5469 112.177 21.6302 112.188 21.6719C112.26 21.7656 112.344 21.8594 112.438 21.9531C112.542 22.0469 112.651 22.1094 112.766 22.1406H113.625C113.979 22.1406 114.286 22.1354 114.547 22.125C114.818 22.1146 115.141 22.0833 115.516 22.0312C115.526 22.0104 115.542 21.974 115.562 21.9219C115.583 21.8698 115.609 21.8177 115.641 21.7656C115.672 21.7135 115.698 21.6667 115.719 21.625C115.74 21.5833 115.755 21.5573 115.766 21.5469C115.807 21.474 115.859 21.3698 115.922 21.2344C115.984 21.0885 116.047 20.9479 116.109 20.8125C116.172 20.6667 116.224 20.5417 116.266 20.4375C116.318 20.3333 116.349 20.276 116.359 20.2656C116.38 20.224 116.401 20.1354 116.422 20C116.443 19.8542 116.464 19.7708 116.484 19.75C116.568 19.6562 116.677 19.5938 116.812 19.5625C116.948 19.5312 117.083 19.5156 117.219 19.5156C117.365 19.5156 117.453 19.5729 117.484 19.6875C117.526 19.7917 117.547 19.9115 117.547 20.0469V20.4375V20.625C117.547 20.7188 117.536 20.8125 117.516 20.9062C117.495 20.9896 117.458 21.0729 117.406 21.1562C117.396 21.25 117.385 21.4062 117.375 21.625C117.365 21.8438 117.354 22.0729 117.344 22.3125C117.333 22.5521 117.323 22.7812 117.312 23C117.302 23.2083 117.297 23.3542 117.297 23.4375V23.8438V24.7812C117.286 24.8021 117.276 24.849 117.266 24.9219C117.255 24.9948 117.245 25.0781 117.234 25.1719C117.234 25.2552 117.229 25.3385 117.219 25.4219C117.208 25.5052 117.198 25.5625 117.188 25.5938C117.073 25.6771 116.969 25.7396 116.875 25.7812C116.792 25.8229 116.688 25.8438 116.562 25.8438C116.479 25.8438 116.401 25.8125 116.328 25.75C116.255 25.6771 116.188 25.5885 116.125 25.4844C116.062 25.3802 116.01 25.276 115.969 25.1719C115.927 25.0573 115.901 24.9531 115.891 24.8594C115.88 24.8281 115.865 24.7604 115.844 24.6562C115.833 24.5417 115.823 24.4219 115.812 24.2969C115.802 24.1615 115.792 24.0365 115.781 23.9219C115.771 23.8073 115.766 23.724 115.766 23.6719C115.734 23.6302 115.677 23.5938 115.594 23.5625C115.521 23.5208 115.448 23.4792 115.375 23.4375C115.312 23.4167 115.214 23.3906 115.078 23.3594C114.943 23.3281 114.797 23.3021 114.641 23.2812C114.495 23.25 114.354 23.2292 114.219 23.2188C114.094 23.1979 114.01 23.1875 113.969 23.1875C113.938 23.1875 113.88 23.1875 113.797 23.1875C113.724 23.1771 113.635 23.1719 113.531 23.1719C113.438 23.1719 113.344 23.1719 113.25 23.1719C113.156 23.1615 113.083 23.1562 113.031 23.1562C113 23.1562 112.948 23.1615 112.875 23.1719C112.812 23.1719 112.745 23.1719 112.672 23.1719C112.609 23.1719 112.552 23.1771 112.5 23.1875C112.448 23.1875 112.417 23.1875 112.406 23.1875L112.188 23.4375V23.9688C112.188 24.5833 112.167 25.1771 112.125 25.75C112.083 26.3125 112.062 26.901 112.062 27.5156C112.062 27.8281 112.089 28.0573 112.141 28.2031C112.193 28.349 112.276 28.4531 112.391 28.5156C112.505 28.5781 112.651 28.625 112.828 28.6562C113.005 28.6875 113.224 28.7396 113.484 28.8125C113.505 28.8125 113.542 28.8281 113.594 28.8594C113.646 28.8906 113.682 28.9219 113.703 28.9531H114.922H116.078C116.099 28.9531 116.146 28.9479 116.219 28.9375C116.292 28.9167 116.37 28.901 116.453 28.8906C116.536 28.8698 116.609 28.8542 116.672 28.8438C116.745 28.8229 116.792 28.8125 116.812 28.8125H117.562H117.859C117.88 28.8125 117.917 28.7969 117.969 28.7656C118.021 28.724 118.073 28.6823 118.125 28.6406C118.188 28.5885 118.24 28.5417 118.281 28.5C118.323 28.4583 118.349 28.4375 118.359 28.4375C118.432 28.4062 118.49 28.3906 118.531 28.3906C118.583 28.3802 118.625 28.375 118.656 28.375C118.688 28.3646 118.719 28.349 118.75 28.3281C118.781 28.2969 118.812 28.25 118.844 28.1875C118.958 28.0208 119.042 27.849 119.094 27.6719C119.146 27.4948 119.214 27.3177 119.297 27.1406C119.339 27.1094 119.391 27.0469 119.453 26.9531C119.516 26.849 119.552 26.7812 119.562 26.75C119.573 26.75 119.604 26.7344 119.656 26.7031C119.708 26.6615 119.76 26.6198 119.812 26.5781C119.865 26.526 119.911 26.4792 119.953 26.4375C119.995 26.3854 120.021 26.349 120.031 26.3281C120.042 26.2969 120.062 26.2552 120.094 26.2031C120.135 26.1406 120.177 26.0781 120.219 26.0156C120.26 25.9427 120.297 25.8802 120.328 25.8281C120.37 25.7656 120.396 25.724 120.406 25.7031C120.406 25.6927 120.422 25.6719 120.453 25.6406C120.474 25.6302 120.495 25.6146 120.516 25.5938C120.516 25.5729 120.521 25.5625 120.531 25.5625H120.562C120.719 25.5625 120.812 25.625 120.844 25.75C120.875 25.8646 120.891 25.9844 120.891 26.1094V26.4375C120.891 26.4896 120.896 26.6146 120.906 26.8125C120.917 27.0104 120.922 27.224 120.922 27.4531C120.932 27.6719 120.943 27.8802 120.953 28.0781C120.964 28.276 120.969 28.3958 120.969 28.4375V28.4844C120.969 28.6198 120.943 28.776 120.891 28.9531C120.839 29.1198 120.766 29.2812 120.672 29.4375C120.578 29.5938 120.464 29.724 120.328 29.8281C120.203 29.9323 120.068 29.9896 119.922 30C119.849 29.9896 119.714 29.9792 119.516 29.9688C119.328 29.9583 119.125 29.9479 118.906 29.9375C118.688 29.9271 118.479 29.9167 118.281 29.9062C118.083 29.8958 117.943 29.8802 117.859 29.8594H117.562H117.297C117.245 29.8802 117.125 29.901 116.938 29.9219C116.75 29.9323 116.547 29.9427 116.328 29.9531C116.12 29.9635 115.917 29.974 115.719 29.9844C115.531 29.9948 115.417 30 115.375 30H109.453C109.422 30.0104 109.37 30.0208 109.297 30.0312C109.234 30.0417 109.161 30.0469 109.078 30.0469C109.005 30.0573 108.932 30.0625 108.859 30.0625C108.786 30.0729 108.734 30.0781 108.703 30.0781C108.703 30.099 108.667 30.1094 108.594 30.1094C108.521 30.1094 108.453 30.1042 108.391 30.0938C108.328 30.0833 108.286 30.0781 108.266 30.0781C108.224 30.1094 108.141 30.1458 108.016 30.1875C107.891 30.2292 107.802 30.25 107.75 30.25C107.698 30.25 107.609 30.2396 107.484 30.2188C107.37 30.1979 107.245 30.1719 107.109 30.1406C106.974 30.1198 106.844 30.0938 106.719 30.0625C106.594 30.0417 106.5 30.0208 106.438 30ZM125.016 17.625C124.984 17.4271 124.943 17.2708 124.891 17.1562C124.839 17.0312 124.771 16.9323 124.688 16.8594C124.604 16.776 124.5 16.7031 124.375 16.6406C124.25 16.5781 124.094 16.5 123.906 16.4062C123.792 16.3542 123.672 16.3177 123.547 16.2969C123.432 16.2656 123.359 16.2396 123.328 16.2188C123.266 16.1458 123.219 16.0469 123.188 15.9219C123.156 15.7865 123.141 15.6875 123.141 15.625C123.141 15.6042 123.141 15.5625 123.141 15.5C123.151 15.4271 123.177 15.375 123.219 15.3438C123.24 15.3333 123.297 15.3177 123.391 15.2969C123.484 15.276 123.557 15.2552 123.609 15.2344C123.714 15.224 123.828 15.2135 123.953 15.2031C124.089 15.1927 124.214 15.1875 124.328 15.1875C124.505 15.1875 124.688 15.2031 124.875 15.2344C125.062 15.2552 125.307 15.2917 125.609 15.3438H126.203C126.401 15.3438 126.589 15.3438 126.766 15.3438C126.943 15.3438 127.115 15.3385 127.281 15.3281C127.448 15.3177 127.615 15.3073 127.781 15.2969C127.948 15.2865 128.13 15.2656 128.328 15.2344C128.359 15.2344 128.422 15.2188 128.516 15.1875C128.609 15.1562 128.667 15.1406 128.688 15.1406H128.797C129.036 15.1406 129.255 15.1823 129.453 15.2656C129.661 15.349 129.766 15.5208 129.766 15.7812C129.766 15.9583 129.703 16.0938 129.578 16.1875C129.453 16.2812 129.302 16.3646 129.125 16.4375C128.958 16.5104 128.786 16.5833 128.609 16.6562C128.443 16.7188 128.312 16.8073 128.219 16.9219C128.115 17.0365 128.031 17.1771 127.969 17.3438C127.906 17.5 127.854 17.6719 127.812 17.8594C127.781 18.0365 127.76 18.2135 127.75 18.3906C127.74 18.5677 127.734 18.724 127.734 18.8594C127.734 19.026 127.755 19.1615 127.797 19.2656C127.849 19.3698 127.875 19.4948 127.875 19.6406C127.875 19.6719 127.87 19.7188 127.859 19.7812C127.859 19.8333 127.844 19.8698 127.812 19.8906C127.812 19.9115 127.807 19.9688 127.797 20.0625C127.786 20.1562 127.776 20.2604 127.766 20.375C127.766 20.4792 127.76 20.5781 127.75 20.6719C127.74 20.7656 127.734 20.8281 127.734 20.8594V22.2344C127.734 22.2865 127.714 22.375 127.672 22.5C127.641 22.625 127.62 22.7083 127.609 22.75V22.9219V23.0781C127.609 23.099 127.615 23.151 127.625 23.2344C127.646 23.3177 127.661 23.4062 127.672 23.5C127.693 23.5938 127.708 23.6823 127.719 23.7656C127.729 23.849 127.734 23.901 127.734 23.9219C127.745 23.974 127.75 24.0677 127.75 24.2031C127.76 24.3281 127.771 24.4635 127.781 24.6094C127.792 24.7448 127.797 24.875 127.797 25C127.807 25.125 127.812 25.2135 127.812 25.2656C127.823 25.349 127.844 25.4583 127.875 25.5938C127.906 25.7188 127.938 25.849 127.969 25.9844C128.01 26.1198 128.052 26.25 128.094 26.375C128.135 26.5 128.177 26.599 128.219 26.6719C128.26 26.776 128.333 26.9062 128.438 27.0625C128.552 27.2188 128.677 27.375 128.812 27.5312C128.948 27.6771 129.083 27.8073 129.219 27.9219C129.365 28.0365 129.5 28.1094 129.625 28.1406C129.646 28.1406 129.693 28.1615 129.766 28.2031C129.839 28.2344 129.901 28.25 129.953 28.25C130.026 28.25 130.062 28.2552 130.062 28.2656C130.177 28.276 130.281 28.3021 130.375 28.3438C130.469 28.375 130.557 28.4115 130.641 28.4531C130.724 28.4844 130.812 28.5156 130.906 28.5469C131 28.5781 131.104 28.5938 131.219 28.5938H131.438C131.448 28.5833 131.484 28.5625 131.547 28.5312C131.609 28.5 131.672 28.4688 131.734 28.4375C131.807 28.4062 131.87 28.3802 131.922 28.3594C131.984 28.3385 132.021 28.3281 132.031 28.3281H132.281C132.385 28.2969 132.495 28.2656 132.609 28.2344C132.693 28.2135 132.781 28.1979 132.875 28.1875C132.969 28.1667 133.042 28.151 133.094 28.1406C133.375 28.0469 133.625 27.875 133.844 27.625C134.073 27.3646 134.255 27.1302 134.391 26.9219C134.401 26.901 134.417 26.8542 134.438 26.7812C134.469 26.7083 134.495 26.6354 134.516 26.5625C134.547 26.4792 134.573 26.401 134.594 26.3281C134.615 26.2552 134.625 26.2083 134.625 26.1875C134.75 25.8646 134.844 25.526 134.906 25.1719C134.969 24.8177 135.01 24.4583 135.031 24.0938C135.052 23.7188 135.068 23.349 135.078 22.9844C135.089 22.6198 135.109 22.2656 135.141 21.9219C135.141 21.9115 135.146 21.8802 135.156 21.8281C135.167 21.7656 135.172 21.7031 135.172 21.6406C135.182 21.5677 135.193 21.5052 135.203 21.4531C135.214 21.3906 135.219 21.349 135.219 21.3281V20.6719V19.9688C135.208 19.8854 135.193 19.7344 135.172 19.5156C135.151 19.2969 135.125 19.0625 135.094 18.8125C135.073 18.5625 135.052 18.3281 135.031 18.1094C135.021 17.8802 135.016 17.7188 135.016 17.625C134.995 17.5729 134.953 17.474 134.891 17.3281C134.828 17.1719 134.776 17.0729 134.734 17.0312C134.724 16.9792 134.708 16.9271 134.688 16.875C134.667 16.8125 134.646 16.7812 134.625 16.7812C134.552 16.7083 134.484 16.6719 134.422 16.6719C134.37 16.6719 134.323 16.6771 134.281 16.6875C134.25 16.6979 134.214 16.7031 134.172 16.7031C134.12 16.7031 134.073 16.6927 134.031 16.6719C133.771 16.6198 133.531 16.5573 133.312 16.4844C133.104 16.4115 132.911 16.2604 132.734 16.0312C132.714 15.9792 132.698 15.9427 132.688 15.9219C132.688 15.901 132.688 15.8542 132.688 15.7812C132.688 15.7604 132.693 15.7396 132.703 15.7188C132.714 15.6875 132.724 15.6615 132.734 15.6406C132.901 15.4323 133.104 15.3073 133.344 15.2656C133.583 15.2135 133.833 15.1875 134.094 15.1875C134.281 15.1875 134.469 15.1979 134.656 15.2188C134.844 15.2292 135.026 15.2344 135.203 15.2344C135.286 15.2344 135.406 15.2188 135.562 15.1875C135.729 15.1562 135.87 15.1406 135.984 15.1406H136.953C137.047 15.1406 137.156 15.1354 137.281 15.125C137.417 15.1146 137.552 15.1094 137.688 15.1094C137.896 15.1094 138.099 15.125 138.297 15.1562C138.495 15.1875 138.661 15.25 138.797 15.3438C138.818 15.375 138.828 15.4323 138.828 15.5156C138.839 15.599 138.844 15.651 138.844 15.6719C138.844 15.8802 138.792 16.0417 138.688 16.1562C138.594 16.2604 138.469 16.3438 138.312 16.4062C138.167 16.4583 138.005 16.5 137.828 16.5312C137.661 16.5625 137.505 16.6094 137.359 16.6719C137.193 16.7448 137.057 16.8594 136.953 17.0156C136.849 17.1719 136.797 17.3438 136.797 17.5312C136.797 17.6979 136.812 17.8438 136.844 17.9688C136.885 18.0938 136.906 18.2396 136.906 18.4062V18.6719C136.906 18.7031 136.885 18.7708 136.844 18.875C136.812 18.9792 136.797 19.0365 136.797 19.0469V19.4375V20.3438C136.786 20.4583 136.776 20.6562 136.766 20.9375C136.755 21.2188 136.74 21.5208 136.719 21.8438C136.708 22.1562 136.698 22.4531 136.688 22.7344C136.677 23.0156 136.667 23.2135 136.656 23.3281C136.604 23.4323 136.568 23.5365 136.547 23.6406C136.526 23.7344 136.51 23.8333 136.5 23.9375C136.49 24.0312 136.479 24.125 136.469 24.2188C136.469 24.3125 136.453 24.4115 136.422 24.5156C136.411 24.5469 136.396 24.6042 136.375 24.6875C136.354 24.7604 136.328 24.8438 136.297 24.9375C136.276 25.0312 136.255 25.1198 136.234 25.2031C136.214 25.276 136.203 25.3229 136.203 25.3438C136.182 25.3646 136.167 25.4167 136.156 25.5C136.146 25.5729 136.135 25.651 136.125 25.7344C136.125 25.8073 136.115 25.8802 136.094 25.9531C136.083 26.0156 136.073 26.0469 136.062 26.0469C136.062 26.0781 136.026 26.151 135.953 26.2656C135.88 26.3698 135.839 26.4323 135.828 26.4531C135.807 26.474 135.771 26.5417 135.719 26.6562C135.667 26.7708 135.604 26.8958 135.531 27.0312C135.469 27.1667 135.406 27.2917 135.344 27.4062C135.281 27.5208 135.24 27.5938 135.219 27.625C135.031 27.9792 134.786 28.2969 134.484 28.5781C134.193 28.8594 133.88 29.1458 133.547 29.4375C133.505 29.4688 133.443 29.5156 133.359 29.5781C133.276 29.6302 133.188 29.6875 133.094 29.75C133.01 29.8125 132.932 29.8698 132.859 29.9219C132.786 29.9635 132.745 29.9896 132.734 30H132.281C132.083 30.0208 131.906 30.0417 131.75 30.0625C131.604 30.0938 131.458 30.1198 131.312 30.1406C131.167 30.1719 131.016 30.1979 130.859 30.2188C130.703 30.2396 130.526 30.25 130.328 30.25H129.391C129.276 30.1979 129.156 30.1615 129.031 30.1406C128.906 30.1198 128.781 30.099 128.656 30.0781C128.542 30.0677 128.427 30.0469 128.312 30.0156C128.198 29.9948 128.089 29.9531 127.984 29.8906C127.953 29.8802 127.885 29.8438 127.781 29.7812C127.677 29.7083 127.557 29.625 127.422 29.5312C127.297 29.4375 127.172 29.349 127.047 29.2656C126.922 29.1719 126.828 29.0938 126.766 29.0312L126.656 28.9531C126.573 28.8177 126.484 28.7031 126.391 28.6094C126.297 28.5052 126.203 28.4062 126.109 28.3125C126.016 28.2188 125.922 28.1198 125.828 28.0156C125.745 27.901 125.672 27.7708 125.609 27.625C125.391 27.125 125.234 26.5885 125.141 26.0156C125.057 25.4323 125.016 24.8594 125.016 24.2969C125.005 24.1719 124.995 24 124.984 23.7812C124.984 23.5521 124.984 23.2917 124.984 23C124.984 22.6979 124.984 22.375 124.984 22.0312C124.984 21.6875 124.984 21.3333 124.984 20.9688C124.984 20.6146 124.984 20.2656 124.984 19.9219C124.984 19.5781 124.984 19.2604 124.984 18.9688C124.984 18.6667 124.984 18.401 124.984 18.1719C124.995 17.9323 125.005 17.75 125.016 17.625ZM147.453 29.5625V29.625C147.307 29.8125 147.167 29.9427 147.031 30.0156C146.896 30.099 146.708 30.1406 146.469 30.1406C146.458 30.1406 146.438 30.1302 146.406 30.1094C146.385 30.0885 146.365 30.0781 146.344 30.0781C146.312 30.0781 146.234 30.0677 146.109 30.0469C145.995 30.0365 145.917 30.0208 145.875 30C145.26 30.0208 144.677 30.0365 144.125 30.0469C143.583 30.0677 143.016 30.0781 142.422 30.0781C142.339 30.0781 142.25 30.0833 142.156 30.0938C142.062 30.1042 141.958 30.1094 141.844 30.1094C141.615 30.1094 141.411 30.0833 141.234 30.0312C141.109 30 140.979 29.9531 140.844 29.8906C140.719 29.8177 140.656 29.7083 140.656 29.5625C140.656 29.4792 140.661 29.401 140.672 29.3281C140.693 29.2552 140.75 29.1823 140.844 29.1094C140.948 29.0677 141.089 29.0208 141.266 28.9688C141.453 28.9062 141.594 28.8646 141.688 28.8438C141.719 28.8333 141.771 28.8177 141.844 28.7969C141.917 28.776 141.99 28.7552 142.062 28.7344C142.146 28.7135 142.219 28.6927 142.281 28.6719C142.344 28.651 142.391 28.6354 142.422 28.625C142.505 28.5729 142.594 28.5052 142.688 28.4219C142.781 28.3281 142.854 28.224 142.906 28.1094C142.99 27.9635 143.047 27.8021 143.078 27.625C143.109 27.4479 143.125 27.2656 143.125 27.0781C143.125 26.9635 143.13 26.8542 143.141 26.75C143.151 26.6354 143.156 26.5208 143.156 26.4062C143.156 26.2917 143.156 26.1875 143.156 26.0938C143.167 26 143.182 25.9062 143.203 25.8125C143.203 25.7812 143.214 25.7135 143.234 25.6094C143.266 25.5052 143.297 25.3958 143.328 25.2812C143.37 25.1562 143.406 25.0417 143.438 24.9375C143.469 24.8333 143.49 24.7708 143.5 24.75V24.7031V24.4844C143.51 24.474 143.521 24.4427 143.531 24.3906C143.542 24.3385 143.552 24.2812 143.562 24.2188C143.583 24.1458 143.599 24.0781 143.609 24.0156C143.63 23.9531 143.646 23.9115 143.656 23.8906C143.656 23.8698 143.646 23.8021 143.625 23.6875C143.615 23.5625 143.609 23.4792 143.609 23.4375V23.2656C143.609 22.5469 143.651 21.8229 143.734 21.0938C143.828 20.3542 143.875 19.6094 143.875 18.8594V18.3281C143.875 18.2969 143.87 18.2552 143.859 18.2031C143.849 18.151 143.833 18.099 143.812 18.0469L143.75 17.8594L142.312 16.4062C142.24 16.3438 142.135 16.2917 142 16.25C141.865 16.2083 141.729 16.1615 141.594 16.1094C141.458 16.0573 141.339 15.9948 141.234 15.9219C141.141 15.849 141.094 15.7396 141.094 15.5938C141.094 15.4479 141.146 15.349 141.25 15.2969C141.354 15.2448 141.474 15.2188 141.609 15.2188H144.312C144.542 15.2188 144.76 15.2917 144.969 15.4375C145.177 15.5729 145.37 15.7396 145.547 15.9375C145.724 16.1354 145.891 16.3438 146.047 16.5625C146.203 16.7812 146.344 16.9635 146.469 17.1094C146.49 17.1406 146.542 17.2083 146.625 17.3125C146.708 17.4062 146.797 17.5104 146.891 17.625C146.995 17.7292 147.083 17.8281 147.156 17.9219C147.24 18.0052 147.292 18.0573 147.312 18.0781C147.333 18.099 147.375 18.1562 147.438 18.25C147.51 18.3438 147.583 18.4479 147.656 18.5625C147.74 18.6667 147.812 18.7708 147.875 18.875C147.948 18.9688 147.995 19.0208 148.016 19.0312C148.026 19.0312 148.047 19.0521 148.078 19.0938C148.12 19.125 148.161 19.1615 148.203 19.2031C148.245 19.2344 148.281 19.2708 148.312 19.3125C148.354 19.3438 148.38 19.3646 148.391 19.375C148.464 19.4896 148.516 19.599 148.547 19.7031C148.589 19.8073 148.63 19.901 148.672 19.9844C148.714 20.0573 148.766 20.125 148.828 20.1875C148.901 20.25 149 20.3021 149.125 20.3438C149.781 20.9583 150.406 21.6042 151 22.2812C151.594 22.9479 152.229 23.5677 152.906 24.1406C153.031 24.0573 153.125 23.9635 153.188 23.8594C153.25 23.7448 153.302 23.625 153.344 23.5C153.385 23.375 153.417 23.2448 153.438 23.1094C153.469 22.974 153.5 22.8385 153.531 22.7031C153.615 22.3073 153.688 21.9271 153.75 21.5625C153.823 21.1979 153.859 20.7917 153.859 20.3438C153.859 20.1875 153.854 19.9792 153.844 19.7188C153.844 19.4479 153.833 19.1719 153.812 18.8906C153.792 18.599 153.76 18.3229 153.719 18.0625C153.677 17.8021 153.615 17.6094 153.531 17.4844C153.5 17.4531 153.458 17.4062 153.406 17.3438C153.365 17.2812 153.318 17.2188 153.266 17.1562C153.224 17.0938 153.182 17.0365 153.141 16.9844C153.099 16.9323 153.068 16.901 153.047 16.8906C152.964 16.7969 152.781 16.7135 152.5 16.6406C152.229 16.5573 151.943 16.4688 151.641 16.375C151.349 16.2812 151.083 16.1823 150.844 16.0781C150.615 15.974 150.5 15.849 150.5 15.7031C150.5 15.6719 150.5 15.6354 150.5 15.5938C150.5 15.5521 150.51 15.526 150.531 15.5156C150.573 15.3698 150.635 15.2656 150.719 15.2031C150.812 15.1406 150.948 15.1094 151.125 15.1094H151.469C151.896 15.1094 152.312 15.099 152.719 15.0781C153.125 15.0573 153.531 15.0469 153.938 15.0469C154.115 15.0469 154.276 15.0573 154.422 15.0781C154.568 15.099 154.719 15.1094 154.875 15.1094C155.188 15.1094 155.5 15.0885 155.812 15.0469C156.125 14.9948 156.438 14.9688 156.75 14.9688C156.958 14.9688 157.13 15.0208 157.266 15.125C157.401 15.2188 157.469 15.375 157.469 15.5938C157.469 15.6875 157.427 15.7708 157.344 15.8438C157.271 15.9062 157.182 15.9635 157.078 16.0156C156.974 16.0573 156.865 16.0938 156.75 16.125C156.646 16.1458 156.562 16.1562 156.5 16.1562C156.448 16.1771 156.359 16.2031 156.234 16.2344C156.109 16.2552 155.974 16.2812 155.828 16.3125C155.693 16.3333 155.557 16.3542 155.422 16.375C155.297 16.3958 155.214 16.4062 155.172 16.4062C154.984 16.5729 154.87 16.75 154.828 16.9375C154.797 17.1146 154.76 17.3229 154.719 17.5625C154.719 17.5833 154.714 17.6198 154.703 17.6719C154.693 17.724 154.677 17.7812 154.656 17.8438C154.646 17.8958 154.63 17.9479 154.609 18C154.599 18.0417 154.583 18.0677 154.562 18.0781V18.1094V18.1875C154.573 18.2604 154.583 18.4062 154.594 18.625C154.615 18.8333 154.63 19.0833 154.641 19.375C154.651 19.6562 154.661 19.9583 154.672 20.2812C154.682 20.6042 154.688 20.9115 154.688 21.2031C154.698 21.4844 154.703 21.7344 154.703 21.9531C154.714 22.1615 154.719 22.3021 154.719 22.375V22.5469C154.719 22.9844 154.677 23.4062 154.594 23.8125C154.51 24.2188 154.469 24.6406 154.469 25.0781C154.469 25.7865 154.516 26.4896 154.609 27.1875C154.714 27.875 154.766 28.5781 154.766 29.2969C154.766 29.3281 154.76 29.3802 154.75 29.4531C154.75 29.5156 154.745 29.5885 154.734 29.6719C154.734 29.7448 154.729 29.8125 154.719 29.875C154.719 29.9375 154.719 29.9792 154.719 30C154.625 30.0729 154.531 30.1146 154.438 30.125C154.354 30.1354 154.266 30.1406 154.172 30.1406C154.057 30.1406 153.948 30.1354 153.844 30.125C153.75 30.1146 153.646 30.0729 153.531 30C153.417 29.9375 153.307 29.8438 153.203 29.7188C153.109 29.5938 153.021 29.4635 152.938 29.3281C152.865 29.1823 152.797 29.0417 152.734 28.9062C152.672 28.7708 152.615 28.6667 152.562 28.5938C152.354 28.2396 152.083 27.9219 151.75 27.6406C151.427 27.349 151.135 27.0521 150.875 26.75C150.854 26.7188 150.839 26.6875 150.828 26.6562C150.807 26.5938 150.797 26.5573 150.797 26.5469C150.766 26.5156 150.703 26.4531 150.609 26.3594C150.526 26.2656 150.438 26.1667 150.344 26.0625C150.25 25.9479 150.161 25.8438 150.078 25.75C149.995 25.6562 149.948 25.5938 149.938 25.5625C149.927 25.5625 149.911 25.5417 149.891 25.5C149.87 25.4479 149.844 25.3958 149.812 25.3438C149.792 25.2812 149.771 25.2292 149.75 25.1875C149.729 25.1354 149.719 25.099 149.719 25.0781C149.552 24.8698 149.375 24.6667 149.188 24.4688C149.01 24.2604 148.818 24.0677 148.609 23.8906C148.599 23.8802 148.568 23.8646 148.516 23.8438C148.474 23.8125 148.427 23.7812 148.375 23.75C148.323 23.7083 148.271 23.6719 148.219 23.6406C148.177 23.599 148.156 23.5677 148.156 23.5469C147.979 23.4219 147.818 23.276 147.672 23.1094C147.536 22.9427 147.401 22.7708 147.266 22.5938C147.141 22.4167 147.01 22.2396 146.875 22.0625C146.75 21.875 146.615 21.7031 146.469 21.5469C146.427 21.4948 146.349 21.4115 146.234 21.2969C146.13 21.1823 146.016 21.0625 145.891 20.9375C145.766 20.8125 145.641 20.6927 145.516 20.5781C145.401 20.4635 145.323 20.3854 145.281 20.3438C145.281 20.3125 145.26 20.2969 145.219 20.2969H145.172C145.036 20.2969 144.953 20.3073 144.922 20.3281C144.901 20.349 144.849 20.4219 144.766 20.5469C144.745 20.6094 144.724 20.6667 144.703 20.7188C144.693 20.7708 144.677 20.8438 144.656 20.9375C144.646 21.0208 144.62 21.1719 144.578 21.3906C144.547 21.599 144.505 21.776 144.453 21.9219V21.9688C144.453 22.0208 144.453 22.099 144.453 22.2031C144.464 22.2969 144.469 22.3906 144.469 22.4844C144.469 22.7656 144.453 23.0573 144.422 23.3594C144.401 23.651 144.391 23.9479 144.391 24.25V24.4062C144.411 24.4271 144.427 24.4896 144.438 24.5938C144.458 24.6875 144.469 24.7396 144.469 24.75V26.1562C144.479 26.2396 144.495 26.375 144.516 26.5625C144.536 26.75 144.557 26.9479 144.578 27.1562C144.599 27.3542 144.615 27.5469 144.625 27.7344C144.646 27.9115 144.656 28.0365 144.656 28.1094C144.781 28.276 144.953 28.4219 145.172 28.5469C145.391 28.6719 145.589 28.7604 145.766 28.8125H146.25C146.333 28.8229 146.443 28.8438 146.578 28.875C146.714 28.9062 146.844 28.9531 146.969 29.0156C147.104 29.0677 147.219 29.1406 147.312 29.2344C147.406 29.3281 147.453 29.4375 147.453 29.5625Z" fill="#FFF6E0"/>
<line x1="6.92815e-10" y1="38.5" x2="159" y2="38.5" stroke="#FFF6E0"/>
<line x1="6.92815e-10" y1="3.5" x2="159" y2="3.5" stroke="#FFF6E0"/>
</svg>
